<svg width="219" height="140" viewBox="0 0 219 140" fill="none" xmlns="http://www.w3.org/2000/svg">
<path d="M29.8174 87.8082C29.2643 82.5534 29.0748 77.2627 28.7572 71.9874C28.7572 70.0207 28.1375 67.7774 29.3258 66.0411C29.595 65.7018 29.9432 65.4335 30.34 65.2598C30.7368 65.086 31.1701 65.0121 31.6021 65.0445C32.0341 65.0768 32.4516 65.2144 32.8181 65.4453C33.1846 65.6761 33.4891 65.9933 33.7048 66.3689C34.263 69.2473 33.5665 72.4432 34.0735 75.4906C34.2425 78.5021 34.3962 81.2781 34.6164 84.1974C34.7854 86.2922 35.6408 89.5445 32.7009 90.0003C32.3676 90.0457 32.0287 90.0251 31.7034 89.9395C31.3781 89.8539 31.0728 89.7051 30.8051 89.5016C30.5373 89.298 30.3123 89.0437 30.1428 88.7531C29.9733 88.4626 29.8628 88.1415 29.8174 87.8082Z" fill="#C83660"/>
<path d="M29.2373 53.0679C29.2373 52.5614 29.3875 52.0663 29.6689 51.6452C29.9503 51.2241 30.3502 50.8958 30.8182 50.702C31.2861 50.5082 31.801 50.4575 32.2977 50.5563C32.7945 50.6551 33.2508 50.899 33.6089 51.2571C33.9671 51.6153 34.211 52.0716 34.3098 52.5683C34.4086 53.0651 34.3579 53.58 34.1641 54.0479C33.9702 54.5158 33.642 54.9158 33.2209 55.1972C32.7998 55.4786 32.3046 55.6288 31.7981 55.6288C31.119 55.6288 30.4676 55.3589 29.9874 54.8787C29.5071 54.3984 29.2373 53.7471 29.2373 53.0679V53.0679Z" fill="#C83660"/>
<path d="M29.0483 99.3525C8.73061 95.2551 -0.360347 73.8875 8.24405 55.6288C10.9022 49.995 14.6103 44.5967 19.7166 40.9398C22.2057 39.2497 29.3095 36.1306 29.1917 41.411C42.1853 41.3547 57.5606 46.8298 60.8077 60.8375C66.2879 82.5687 54.2929 106.671 29.0483 99.3525ZM39.4862 95.4037C57.325 94.1437 60.6745 69.657 53.5042 56.7146C48.8281 49.8208 40.3467 47.1473 32.3671 46.7478C29.1507 46.0564 25.1046 47.3675 22.5028 45.2113C0.541079 63.5366 8.98669 96.3102 39.4862 95.4037Z" fill="#C83660"/>
<path d="M63.348 47.3985C61.1713 47.1168 60.3365 44.1513 62.1342 42.8299C67.7987 40.7505 74.2264 40.7044 80.1573 39.4138C87.9149 38.1231 95.6726 36.8359 103.43 35.5521C106.544 35.675 112.183 32.2076 113.397 36.5457C113.356 41.1244 105.94 39.6187 102.831 40.8376C89.6836 43.0041 76.4288 45.2423 63.348 47.3985Z" fill="#C83660"/>
<path d="M69.5459 61.7441C66.6419 61.3907 66.6778 56.986 69.5459 56.5968C74.391 56.8836 79.2771 55.6288 84.0863 54.9015C92.071 53.5289 100.025 52.0026 108.025 50.7274C111.098 50.7888 116.706 47.5263 117.905 51.7978C117.997 52.4701 117.818 53.1514 117.408 53.692C116.998 54.2326 116.39 54.5884 115.718 54.6813C109.736 55.6083 103.769 56.6224 97.7919 57.6621C88.4295 59.0091 79.0517 61.8055 69.5459 61.7441Z" fill="#C83660"/>
<path d="M74.6469 79.583C68.5009 79.3679 71.7941 71.4908 76.2653 74.4101C84.6546 73.0426 92.8186 70.5689 101.116 68.7507C106.586 67.4549 112.117 66.4357 117.638 65.3857C119.82 64.976 121.428 67.8083 120.015 69.4831C112.762 72.5561 104.009 72.6841 96.3372 75.1169C89.1361 76.638 82.0221 79.2654 74.6469 79.583Z" fill="#C83660"/>
<path d="M153.033 61.0579C152.275 54.9733 147.487 43.9822 151.231 38.8298C153.592 36.8631 157.044 40.1052 154.949 42.4714C155.159 48.2998 156.762 54.0105 157.976 59.6955C158.867 62.9068 153.878 64.2897 153.033 61.0579Z" fill="#C83660"/>
<path d="M157.151 59.3881C156.311 54.5994 170.381 56.1154 173.894 54.0565C172.947 49.0424 171.927 44.059 171.984 38.9322C165.981 39.5263 159.692 40.1614 154.135 42.6352C150.165 45.6006 147.83 39.05 152.368 37.7645C157.848 35.8489 170.293 32.0999 175.415 34.8963C178.698 38.5327 176.486 44.3714 178.135 48.8068C180.742 56.9297 177.664 59.3625 169.766 60.1973C166.34 60.0334 158.309 63.9208 157.151 59.3881Z" fill="#C83660"/>
<path d="M188.89 70.8145C189.213 66.2921 182.15 47.3317 188.429 47.2087C190.478 47.2087 191.297 49.2574 190.877 50.9783C191.149 54.2254 191.901 57.4111 192.414 60.6173C192.321 63.972 196.332 71.8491 191.763 73.0014C191.094 73.0822 190.419 72.899 189.883 72.4907C189.347 72.0824 188.99 71.4811 188.89 70.8145V70.8145Z" fill="#C83660"/>
<path d="M191.093 75.4651C189.326 74.2001 190.114 71.0963 192.311 70.9017C197.484 70.1539 202.888 69.6981 207.753 67.7058C210.519 66.4715 207.21 60.6993 207.318 58.1385C206.473 56.0028 206.908 52.0694 204.501 51.1731C199.723 51.4291 194.77 52.2793 190.406 54.2768C187.553 55.9669 184.931 51.4855 187.845 49.8517C191.943 47.6954 196.629 46.9938 201.162 46.2665C208.189 44.3971 211.405 49.9439 212.132 56.1104C212.685 60.0848 214.411 64.0387 213.91 68.0387C212.373 73.1092 206.007 73.6725 201.571 74.6559C198.171 74.8864 194.314 76.8224 191.093 75.4651Z" fill="#C83660"/>
<path d="M157.224 96.9096C153.976 95.7675 150.714 75.3986 155.917 76.0542C156.597 76.0542 157.248 76.324 157.728 76.8042C158.209 77.2845 158.478 77.9358 158.478 78.615C158.478 83.0196 158.448 87.5215 159.815 91.7572C161.474 94.0978 160.747 97.9595 157.224 96.9096Z" fill="#C83660"/>
<path d="M161.531 97.4575C160.853 97.4508 160.206 97.179 159.727 96.7001C159.248 96.2213 158.976 95.5738 158.97 94.8967C158.888 89.7443 173.188 93.9185 175.59 90.0209C174.765 85.2424 173.126 80.5202 173.121 75.588C168.255 77.1245 163.139 78.4971 158.959 81.5241C157.054 84.9965 151.84 83.0145 154.032 79.3166C157.915 74.7635 164.122 73.1706 169.582 71.3166C172.875 69.8928 178.289 69.022 178.171 74.1744C180.22 94.2206 186.447 96.3973 161.531 97.4575Z" fill="#C83660"/>
<path d="M106.934 105.678C98.7852 104.361 92.127 98.5431 87.5329 91.9515C85.0181 89.4777 89.1974 85.6724 91.369 88.52C102.503 105.191 117.064 103.752 129.597 89.5443C131.917 87.1935 135.605 90.8503 133.218 93.1653C126.273 100.09 117.479 107.598 106.934 105.678Z" fill="#C83660"/>
<path d="M134.719 102.195C130.166 100.94 134.069 93.5804 133.9 90.2103C130.97 90.2411 125.997 92.5868 124.481 89.0272C124.388 88.702 124.361 88.3617 124.4 88.0259C124.44 87.6901 124.546 87.3654 124.711 87.0707C124.877 86.7759 125.1 86.5169 125.366 86.3086C125.632 86.1003 125.937 85.9467 126.263 85.8569C130.545 86.1744 139.748 81.8518 139.165 89.3653C138.053 92.5407 139.216 102.63 134.719 102.195Z" fill="#C83660"/>
</svg>
