<svg width="140" height="140" viewBox="0 0 140 140" fill="none" xmlns="http://www.w3.org/2000/svg">
<path d="M10.8804 107.663L10.8826 107.688L10.8897 107.711C11.084 108.357 11.1242 109.396 11.117 110.633C11.1145 111.067 11.1062 111.524 11.0977 111.992C11.0824 112.838 11.0664 113.717 11.0827 114.559C11.108 115.865 11.2108 117.12 11.5269 118.064C11.6854 118.537 11.903 118.949 12.2064 119.251C12.5137 119.556 12.9006 119.738 13.3727 119.761C14.0555 119.823 14.6155 119.653 15.0564 119.285C15.4918 118.922 15.7895 118.384 15.9908 117.747C16.3918 116.478 16.4357 114.729 16.3354 112.898C16.2454 111.254 16.0371 109.517 15.8503 107.958C15.8282 107.774 15.8064 107.592 15.7852 107.413C15.5822 105.706 15.4317 104.293 15.5115 103.501L15.5137 103.479L15.5118 103.456C15.4423 102.667 15.373 101.876 15.3036 101.086C14.7448 94.7199 14.1841 88.331 13.5771 81.9421L13.5771 81.9421L13.5769 81.94C13.5015 81.215 13.4292 80.4888 13.3569 79.762C13.1712 77.8974 12.9852 76.0291 12.7459 74.1694L12.7426 74.1441L12.7341 74.1201C12.3799 73.1218 11.8092 72.4646 11.1529 72.1557C10.4929 71.8452 9.77268 71.9007 9.16768 72.2811C7.96274 73.0388 7.28807 75.0076 8.15434 77.7761C9.04673 86.4637 9.79921 95.1651 10.552 103.87C10.6613 105.135 10.7707 106.399 10.8804 107.663Z" fill="#C83660" stroke="#C83660" stroke-width="0.476918"/>
<path d="M18.0112 115.483L18.0112 115.483L18.0049 115.483C17.2097 115.464 16.5963 115.767 16.1854 116.243C15.7794 116.713 15.5829 117.337 15.5829 117.952C15.5829 118.567 15.7794 119.193 16.1846 119.667C16.5924 120.144 17.2008 120.454 17.9902 120.448C24.6347 121.016 28.1242 119.974 29.7756 117.237C30.5926 115.883 30.9375 114.144 31.0252 112.06C31.1128 109.976 30.9437 107.518 30.7107 104.708C30.6715 102.58 30.6094 100.458 30.5473 98.3387C30.467 95.5938 30.3867 92.8522 30.3563 90.1037L30.3561 90.0867L30.3535 90.0698C30.1534 88.7767 30.1871 86.848 30.2578 84.6317C30.2674 84.3276 30.2778 84.0185 30.2883 83.7052C30.354 81.7459 30.4251 79.6259 30.3697 77.5953C30.3056 75.2429 30.0716 72.9863 29.4516 71.2209C28.831 69.4534 27.8046 68.1315 26.1319 67.7464L26.1123 67.7419L26.0923 67.7407C23.8217 67.6074 20.7325 67.6897 17.7918 68.2164C14.8608 68.7415 12.0322 69.7157 10.3272 71.3998L10.3123 71.4145L10.3002 71.4316C9.79423 72.1461 9.69576 72.8936 9.87324 73.5584C10.0489 74.2164 10.4903 74.7782 11.0399 75.1462C11.5892 75.514 12.2648 75.7001 12.9181 75.5783C13.5548 75.4596 14.1406 75.0537 14.5473 74.3033C17.8258 73.2754 21.3746 72.5307 24.7926 72.5761C25.2946 77 25.3688 81.458 25.3821 85.9312C25.3843 86.6697 25.3848 87.4088 25.3853 88.1482C25.388 91.9445 25.3907 95.7494 25.6188 99.5381C25.4763 100.452 25.5196 101.778 25.6224 103.259C25.6727 103.984 25.7378 104.752 25.8041 105.534L25.8113 105.619C25.8801 106.431 25.9497 107.258 26.0054 108.07C26.1169 109.698 26.1714 111.256 26.054 112.512C25.9953 113.14 25.8944 113.683 25.7412 114.117C25.5939 114.535 25.4047 114.834 25.1759 115.018C22.9137 115.728 20.4979 115.607 18.1051 115.488L18.0112 115.483Z" fill="#C83660" stroke="#C83660" stroke-width="0.476918"/>
<path d="M41.5749 79.6776L41.5749 79.6776L41.5796 79.6768C42.9836 79.4407 44.4302 79.1685 45.9046 78.8911C50.2688 78.07 54.877 77.2031 59.3487 77.0869C65.3189 76.9318 70.9911 78.1193 75.4373 82.5225C75.9933 83.0924 76.644 83.3076 77.2712 83.2595C77.8919 83.212 78.4715 82.9086 78.9049 82.4742C79.3383 82.04 79.6393 81.4609 79.6845 80.844C79.7302 80.2197 79.512 79.575 78.9397 79.031C77.5397 77.6978 76.0274 76.4879 74.4194 75.4148L74.4073 75.4067L74.3942 75.4001C67.2609 71.8097 59.3736 71.6228 51.4705 72.7114C46.2579 73.4294 41.0117 74.7077 35.9623 75.938C33.3679 76.5701 30.8256 77.1896 28.3664 77.7139L28.3505 77.7173L28.3351 77.7228C27.2409 78.1179 26.7759 79.1818 26.8447 80.1741C26.9134 81.1654 27.5199 82.1589 28.6419 82.4122L28.6774 82.4202L28.7137 82.4173C30.869 82.2426 33.0193 81.7122 35.1576 81.1507C35.3915 81.0893 35.6251 81.0275 35.8587 80.9658C37.7669 80.4613 39.6659 79.9594 41.5749 79.6776Z" fill="#C83660" stroke="#C83660" stroke-width="0.476918"/>
<path d="M98.7881 86.3612C98.4585 88.7362 96.4788 90.1871 93.5488 91.0864C90.5594 92.0041 86.6717 92.3158 82.8206 92.4738C81.6299 92.5226 80.4417 92.5567 79.2862 92.5899C76.7209 92.6635 74.317 92.7325 72.405 92.9478C71.0202 93.1037 69.8598 93.3392 69.071 93.7252C68.6747 93.9192 68.3536 94.1599 68.1499 94.4654C67.9441 94.7741 67.8704 95.1309 67.937 95.528C67.9705 96.0916 68.158 96.5529 68.4745 96.9197C68.7909 97.2864 69.224 97.5448 69.725 97.7249C70.7206 98.0829 72.0361 98.1497 73.4041 98.1024C74.5168 98.0639 75.6873 97.9486 76.7775 97.8411C77.032 97.816 77.2822 97.7914 77.5262 97.7682C78.83 97.6446 79.9395 97.5666 80.6517 97.6757L80.6789 97.6798L80.7063 97.6777C81.4291 97.6215 82.1595 97.5705 82.895 97.5191C88.3616 97.1373 94.103 96.7363 99.0068 94.0586L99.0069 94.0586L99.013 94.0551C101.497 92.6008 103.188 89.9414 103.556 87.2381C103.926 84.5241 102.961 81.7498 100.12 80.1234L100.107 80.1162L100.094 80.1106C96.752 78.7028 93.0791 78.5071 89.3933 78.7363C87.5495 78.851 85.6973 79.0725 83.878 79.3042C83.5872 79.3412 83.2972 79.3785 83.0083 79.4157C81.4876 79.6113 79.9951 79.8033 78.5476 79.9358L78.5129 79.939L78.4806 79.9519C77.1553 80.483 76.7934 81.7898 77.0945 82.8788C77.3939 83.9615 78.3679 84.8989 79.76 84.7029C80.7827 84.7222 82.4326 84.5129 84.3214 84.2733L84.4597 84.2558C86.4299 84.006 88.6669 83.7256 90.7871 83.6206C92.9125 83.5154 94.8942 83.5883 96.3621 84.031C97.0942 84.2517 97.6826 84.5599 98.0978 84.9692C98.4691 85.3353 98.7103 85.7903 98.7881 86.3612Z" fill="#C83660" stroke="#C83660" stroke-width="0.476918"/>
<path d="M99.1669 88.5109L99.165 88.5262L99.1651 88.5415C99.175 89.9807 100.17 90.8075 101.271 90.9515C102.35 91.0925 103.558 90.5832 104.064 89.3631C107.263 86.0319 110.684 82.9222 114.305 80.0553L114.305 80.0553C117.718 77.3509 121.41 75.0191 125.319 73.0998C125.572 72.9829 125.844 72.8713 126.131 72.7538C126.33 72.6725 126.535 72.5884 126.746 72.4976C127.25 72.2806 127.766 72.0336 128.199 71.7256C128.632 71.4174 129 71.0365 129.186 70.5452C129.374 70.0483 129.363 69.4713 129.101 68.7987L129.101 68.7987L129.098 68.7919C128.913 68.358 128.619 68.0389 128.232 67.833C127.849 67.6293 127.389 67.5432 126.876 67.5478C125.856 67.557 124.574 67.9264 123.142 68.5424C120.271 69.777 116.7 72.0437 113.207 74.6261C109.711 77.2104 106.281 80.1205 103.69 82.6511C102.395 83.9161 101.306 85.0899 100.523 86.0835C100.132 86.5801 99.8134 87.0356 99.5837 87.4379C99.3565 87.8358 99.2049 88.2002 99.1669 88.5109Z" fill="#C83660" stroke="#C83660" stroke-width="0.476918"/>
<path d="M79.4649 121.187L79.4695 121.206L79.4772 121.223C79.8218 122.029 80.555 122.389 81.4929 122.433C82.4206 122.477 83.5885 122.216 84.9016 121.751C87.5335 120.817 90.8408 119.023 94.1677 116.979C100.825 112.886 107.617 107.753 109.356 106.356C110.489 105.455 111.652 104.558 112.823 103.654C116.156 101.082 119.558 98.4556 122.555 95.5183C126.61 91.5433 129.946 86.9765 131.399 81.1508C131.874 79.4881 132.318 77.4612 132.227 75.5515C132.135 73.6359 131.504 71.8085 129.798 70.6026L129.792 70.5983L129.786 70.5943C127.295 69.0599 124.983 69.6618 123.943 70.9058C123.424 71.5263 123.22 72.3198 123.521 73.0587C123.821 73.7936 124.594 74.4053 125.881 74.7357L125.92 74.7457L125.96 74.7423C126.319 74.7122 126.58 74.7588 126.769 74.8483C126.955 74.9362 127.087 75.0729 127.18 75.2559C127.373 75.6375 127.393 76.2184 127.295 76.9189C127.198 77.609 126.994 78.3676 126.788 79.0744C126.737 79.2486 126.685 79.4205 126.636 79.5876C126.487 80.0835 126.352 80.537 126.279 80.8813C124.128 87.8992 118.705 92.889 112.947 97.1953L112.947 97.1953L112.942 97.1995C112.793 97.3175 112.644 97.4354 112.496 97.5534C107.163 101.786 101.831 106.018 96.2242 109.863C93.2766 111.801 90.216 113.562 87.0587 115.135L87.037 115.146L87.0179 115.161C86.4797 115.583 85.7005 115.915 84.8179 116.238C84.5551 116.334 84.2829 116.429 84.0072 116.526C83.3725 116.748 82.7195 116.977 82.1208 117.236C81.2614 117.608 80.4683 118.06 79.9541 118.689C79.4274 119.335 79.2089 120.147 79.4649 121.187Z" fill="#C83660" stroke="#C83660" stroke-width="0.476918"/>
<path d="M27.3567 104.788L27.3566 104.788L27.3579 104.794C27.661 106.173 29.0311 106.644 30.1656 106.655C32.6034 107.528 34.9716 108.59 37.3441 109.654C38.1403 110.011 38.9369 110.368 39.7368 110.719C52.0912 116.475 65.505 119.5 78.807 122.017C79.5667 122.227 80.2343 122.089 80.7531 121.738C81.2685 121.39 81.6231 120.841 81.7863 120.251C81.9494 119.66 81.9262 119.009 81.6621 118.449C81.395 117.883 80.8888 117.427 80.1241 117.227L80.1141 117.225L80.1039 117.223C74.2113 116.224 68.3765 114.91 62.6242 113.288L62.6154 113.285L62.6063 113.284C53.9531 111.549 45.9265 108.036 37.8707 104.51C36.2868 103.817 34.7017 103.123 33.1105 102.442C32.0221 101.817 30.4515 101.474 29.2145 101.736C28.5887 101.868 28.0255 102.16 27.6677 102.675C27.3081 103.192 27.1833 103.894 27.3567 104.788Z" fill="#C83660" stroke="#C83660" stroke-width="0.476918"/>
<path d="M80.2352 22.4495V22.4497L80.2448 22.4493C87.1981 22.1381 94.3127 22.7825 100.216 25.3953C106.105 28.0018 110.796 32.5691 112.927 40.1339C114.832 52.7921 105.092 65.6162 92.3113 66.8927C85.2367 67.318 77.7135 64.5184 72.5285 59.697C67.3479 54.8798 64.5173 48.0631 66.7689 40.4339L66.7694 40.4323C67.7308 37.0898 69.0637 32.5876 71.1884 28.9172C73.3149 25.2435 76.1958 22.4669 80.2352 22.4495ZM67.2041 25.8854C64.1311 30.9678 62.3097 37.385 61.4631 41.9506C58.7802 55.3933 69.8536 67.8562 82.5045 70.6147C99.0957 76.1971 117.064 62.6015 118.004 45.5323C118.927 35.7144 113.793 28.0567 106.322 23.2255C98.8662 18.404 89.0609 16.3791 80.5446 17.8092C74.6236 17.0088 70.2681 20.8177 67.2041 25.8854Z" fill="#C83660" stroke="#C83660" stroke-width="0.476918"/>
<path d="M83.4979 51.7936L83.3294 51.9623C83.7949 52.4277 84.4263 52.6892 85.0846 52.6892C85.7429 52.6892 86.3742 52.4277 86.8398 51.9623L86.8486 51.9535L86.8565 51.9438C87.5929 51.0349 87.5845 49.9444 87.4675 48.8941C87.4419 48.6637 87.4104 48.4314 87.3793 48.2017C87.3748 48.168 87.3702 48.1344 87.3657 48.1008C87.3301 47.8371 87.2961 47.5769 87.2715 47.3193C87.2222 46.8032 87.2123 46.31 87.3004 45.8462L87.3095 45.7986L87.2992 45.7513C87.1395 45.0115 87.1497 43.8372 87.1917 42.4571C87.1987 42.2295 87.2065 41.9967 87.2144 41.7603C87.2538 40.5788 87.2964 39.3044 87.254 38.1025C87.2033 36.665 87.0308 35.295 86.5655 34.291C86.3312 33.7855 86.0172 33.3605 85.5956 33.0696C85.1711 32.7766 84.6546 32.6316 84.0392 32.6595L84.0287 32.6599L84.0183 32.6613C83.4562 32.7368 83.0182 32.9468 82.6899 33.2578C82.3633 33.567 82.1592 33.9629 82.0406 34.3896C81.806 35.234 81.8967 36.2342 82.0743 37.054C82.3579 38.7525 82.2948 40.7824 82.2297 42.8734C82.2113 43.467 82.1926 44.0656 82.1818 44.6629C82.1331 47.336 82.2399 49.9891 83.2887 51.908L83.4979 51.7936Z" fill="#C83660" stroke="#C83660" stroke-width="0.476918"/>
<path d="M85.1736 51.8443L85.1901 51.8447L85.2065 51.8429C85.9865 51.7553 86.993 51.3244 88.0646 50.7124C89.1435 50.0962 90.3143 49.2812 91.4298 48.398C92.5455 47.5147 93.61 46.5598 94.4757 45.6623C95.3369 44.7695 96.0169 43.9176 96.3459 43.2406L96.3797 43.1712L96.3663 43.0951C96.2105 42.2097 95.9662 41.5564 95.6349 41.1091C95.2971 40.6531 94.8719 40.4166 94.3867 40.3705C93.9135 40.3256 93.4074 40.4641 92.8973 40.7045C92.3849 40.9459 91.8486 41.2998 91.3079 41.7112C90.4256 42.3827 89.5086 43.2261 88.6438 44.0214C88.4508 44.199 88.2604 44.3741 88.0735 44.5444C87.5588 45.0135 87.0709 45.4463 86.6244 45.7986C86.1974 46.1355 85.8206 46.3887 85.504 46.531C83.8805 46.4653 82.9232 47.776 82.7921 49.0655C82.7254 49.7226 82.8663 50.4036 83.2592 50.9317C83.6572 51.4667 84.2968 51.8212 85.1736 51.8443Z" fill="#C83660" stroke="#C83660" stroke-width="0.476918"/>
</svg>
