<svg width="205" height="140" viewBox="0 0 205 140" fill="none" xmlns="http://www.w3.org/2000/svg">
<g clip-path="url(#clip0_1690_53316)">
<path d="M8.27262 128.197C7.5095 127.808 6.92906 127.135 6.65536 126.323C6.38167 125.511 6.43646 124.625 6.808 123.853C9.20201 119.058 11.6978 114.314 14.0044 109.479C16.4741 104.424 18.8143 99.2806 21.1172 94.1755C22.7794 91.479 23.1165 85.9248 27.3462 86.5212C30.6505 87.2213 30.2596 90.8641 28.7122 93.0679C26.7735 97.356 24.8831 101.672 22.876 105.936C20.4232 111.207 17.8299 116.404 15.2024 121.59C13.5582 124.237 12.4849 129.987 8.27262 128.197Z" fill="#A7425C"/>
<path d="M51.4355 127.301C42.9315 117.708 36.8884 106.167 28.2211 96.7946C19.1498 102.473 21.5759 84.1481 31.3707 90.9915C38.9201 97.2192 43.1131 106.485 49.1794 114.021C51.7281 117.213 54.396 120.332 56.7981 123.635C59.1917 127.077 53.8161 130.792 51.4355 127.301Z" fill="#A7425C"/>
<path d="M28.4216 129.38C24.1577 128.442 5.47116 129.915 6.26285 124.114C6.32257 123.259 6.71552 122.462 7.35723 121.893C7.99894 121.325 8.83813 121.031 9.69415 121.075C18.8771 122.527 28.2063 122.968 37.4935 123.197C42.529 123.273 47.5644 123.269 52.6021 123.31C54.3694 123.327 55.7434 125.049 55.6407 126.741C55.5823 127.597 55.1897 128.395 54.5477 128.964C53.9057 129.532 53.0658 129.825 52.2094 129.78C44.2963 129.709 36.3446 129.781 28.4216 129.38Z" fill="#A7425C"/>
<path d="M66.1659 104.757C61.6966 102.018 66.3456 96.7754 70.3058 99.0139C88.9027 98.1945 107.471 96.7739 126.09 96.5753C130.259 96.1989 130.777 102.804 126.582 103.039C112.351 103.364 98.1306 103.845 83.9287 104.841C78.0805 104.821 71.8147 106.498 66.1659 104.757Z" fill="#A7425C"/>
<path d="M123.15 108.645C119.969 104.026 127.692 101.633 129.821 98.4051L129.052 98.1586C127.743 100.627 123.573 99.9541 123.119 97.1492C121.157 95.062 121.137 91.2894 124.469 90.6274C126.668 90.3563 128.775 91.4333 130.883 91.9309C140.339 94.3131 137.18 101.764 131.077 106.099C128.936 107.882 125.874 111.578 123.15 108.645Z" fill="#A7425C"/>
<path d="M163.733 119.055C151.064 108.391 156.342 83.6405 173.241 81.2445C175.305 78.4325 179.643 79.6349 182.683 79.5047C191.683 80.096 200.538 85.8034 203.273 94.6461C208.978 115.877 180.778 135.425 163.733 119.055ZM179.532 118.741C202.485 115.378 204.896 84.5294 177.877 85.9266C177.017 88.5818 174.444 87.8561 172.419 87.8032C156.798 94.9822 162.326 119.125 179.532 118.741V118.741Z" fill="#A7425C"/>
</g>
<defs>
<clipPath id="clip0_1690_53316">
<rect width="205" height="140" fill="white"/>
</clipPath>
</defs>
</svg>
