<svg width="205" height="140" viewBox="0 0 205 140" fill="none" xmlns="http://www.w3.org/2000/svg">
<g clip-path="url(#clip0_1690_53246)">
<path d="M12.0434 130.124C10.441 114.614 11.9885 98.9272 10.1801 83.4544C8.0436 78.9369 12.0117 73.8836 16.3757 77.6533C19.2127 82.7859 18.3582 89.3806 18.8339 95.1054C19.0422 106.982 18.8452 117.826 19.8596 129.435C20.3457 134.462 12.4638 135.21 12.0434 130.124Z" fill="#111111"/>
<path d="M17.4051 132.268C8.15157 130.373 14.7473 117.791 20.617 124.838C37.4982 124.59 53.9639 119.641 70.8771 119.057C75.9195 118.564 76.6431 126.461 71.5654 126.874C59.8065 127.567 48.1223 129.473 36.5335 131.352C30.2398 132.224 23.7323 133.455 17.4051 132.268Z" fill="#111111"/>
<path d="M71.8174 120.73C68.3395 116.987 68.8648 111.673 68.5604 106.946C68.2404 97.2367 67.4214 87.5506 66.1066 77.9257C64.7753 76.3925 65.1003 74.0679 65.2081 72.1726C65.7468 68.3585 71.5902 67.865 72.7545 71.542C76.0707 85.3995 75.7089 99.9579 76.8474 114.024C77.3004 115.53 78.8534 116.54 78.6197 118.28C78.6064 121.625 73.9602 123.339 71.8174 120.73Z" fill="#111111"/>
<path d="M9.98165 78.3307C8.98462 78.0491 8.12347 77.4157 7.55771 76.5478C6.99195 75.6799 6.75996 74.6364 6.90473 73.6105C8.75839 67.7869 19.5603 70.1417 24.5023 68.8033C37.7231 67.6001 50.9095 65.8141 64.1818 65.3282C66.5426 65.2308 68.95 65.1436 71.3301 65.1336C74.7157 65.1174 76.3491 69.8068 73.7789 71.9516C69.0091 74.2722 62.8985 72.5066 57.6657 73.5246C42.9614 74.7107 28.3167 76.4493 13.6164 77.7141C13.1128 78.1172 12.5149 78.3854 11.8789 78.4932C11.243 78.6011 10.59 78.5451 9.98165 78.3307Z" fill="#111111"/>
<path d="M27.8859 84.8248C26.8886 84.3043 26.1108 83.4438 25.6933 82.3992C25.2759 81.3546 25.2464 80.195 25.6102 79.1305C25.3341 75.5521 25.2464 71.9617 25.3475 68.3741C25.1399 57.7776 33.7743 43.9667 45.7513 47.6744C52.0083 50.7899 54.866 58.0833 56.9482 64.3652C58.1735 68.2415 58.5106 72.2945 58.8645 76.3248C59.7758 78.9058 59.4475 82.2668 56.3041 82.9544C49.3625 83.583 51.54 74.0055 50.1954 69.6758C48.5512 61.8131 42.8212 47.3671 35.28 60.0138C29.8613 67.2819 38.3954 88.1863 27.8859 84.8248Z" fill="#111111"/>
<path d="M35.7401 111.814C36.0981 103.154 35.2133 95.5006 35.5083 87.1668C36.1873 83.0531 42.3951 82.9778 43.2423 87.0399C43.3805 95.3477 43.7626 103.809 43.591 112.188C43.3917 117.259 35.4777 116.891 35.7401 111.814Z" fill="#111111"/>
<path d="M39.1207 114.483C36.0826 109.286 43.9549 107.281 46.2615 103.773C45.4253 103.284 44.5309 102.903 43.5994 102.638C34.4307 104.815 36.0523 89.7058 48.373 96.0375C56.2533 98.8785 55.9886 106.751 49.773 111.349C46.928 113.653 42.4704 118.761 39.1207 114.483Z" fill="#111111"/>
<path d="M116.78 125.215C103.608 124.293 90.1042 115.147 89.8367 100.935C89.3438 88.6124 91.3818 74.3081 102.485 66.9078C105.322 65.0823 109.264 63.1534 112.513 64.9841C114.776 59.7851 124.933 63.9306 129.511 63.7917C140.796 64.772 149.534 73.5605 152.384 84.2305C159.741 106.413 139.933 129.388 116.78 125.215ZM123.366 117.682C143.832 117.679 153.264 90.2104 139.141 76.3696C132.488 69.7636 122.178 71.98 114.008 69.6039C113.692 70.4653 113.084 71.1885 112.29 71.6478C111.496 72.1071 110.565 72.2735 109.661 72.1178C104.022 73.9092 100.553 79.6778 98.9784 85.0909C93.9874 105.699 101.162 118.048 123.367 117.666L123.366 117.682Z" fill="#111111"/>
<path d="M114.136 111.437C109.612 109.992 111.562 88.2778 110.353 82.7767C109.884 77.7276 117.787 77.0278 118.169 82.0961C118.35 84.673 118.554 87.2589 118.625 89.8461C121.664 87.4101 125.663 90.463 128.913 91.1314C131.571 91.8731 134.828 93.3586 134.655 96.6094C133.373 102.775 120.675 113.75 114.136 111.437ZM119.225 101.577L119.276 102.459C121.291 101.229 123.118 99.715 124.701 97.9634C123.155 97.4642 121.608 96.9807 119.998 96.4941C119.597 96.3727 119.221 96.1816 118.887 95.9296C118.984 97.8113 119.112 99.6945 119.24 101.578L119.225 101.577Z" fill="#111111"/>
<path d="M90.7998 20.0332C102.632 29.8566 113.296 41.8948 122.967 53.01" stroke="#111111" stroke-width="7.84419" stroke-linecap="round"/>
<path d="M89.4688 57.8613C100.185 44.5694 111.665 31.3068 125.556 21.6299" stroke="#111111" stroke-width="7.84419" stroke-linecap="round"/>
</g>
<defs>
<clipPath id="clip0_1690_53246">
<rect width="205" height="140" fill="white"/>
</clipPath>
</defs>
</svg>
