<svg width="205" height="140" viewBox="0 0 205 140" fill="none" xmlns="http://www.w3.org/2000/svg">
<g clip-path="url(#clip0_1690_53266)">
<path d="M11.0678 45.2345C11.3342 42.2249 14.3063 40.6843 17.0714 41.279C26.5085 41.3156 35.9644 40.7348 45.363 40.1937C55.2858 39.6092 65.1292 39.0087 75.0187 38.6995C79.5598 39.1015 85.0118 37.3227 89.0091 39.8122C91.8797 42.2559 90.0343 47.5935 86.1877 47.5581C71.4689 47.377 56.7743 48.5441 42.0578 49.3504C35.1483 49.7528 28.2314 50.1367 21.3374 50.2624C17.4068 50.2644 10.7884 50.926 11.0678 45.2345Z" fill="#111111"/>
<path d="M17.1451 88.0016C3.82556 87.5226 10.5092 71.7281 8.98603 63.1849C8.87664 59.0503 8.52254 54.9257 7.92562 50.8329C6.6323 48.4122 7.80706 44.8729 10.5534 44.0571C20.8932 40.4854 17.4324 72.996 17.6855 79.0577C27.2994 80.2407 36.9777 78.2616 46.5982 78.153C56.3943 77.683 66.3404 79.0658 75.9816 76.7964C81.6432 75.6912 83.2983 84.5691 77.5896 85.5984C67.9224 87.8566 57.9704 86.7424 48.1522 87.0579C37.8164 87.2378 27.4644 89.1214 17.1451 88.0016Z" fill="#111111"/>
<path d="M69.3381 80.9824C69.2982 79.8038 69.7193 78.6559 70.5121 77.7828C71.3048 76.9096 72.4068 76.3798 73.5838 76.306C76.5686 76.0408 79.5565 75.7399 82.5371 75.4204C82.6766 67.3564 82.7081 59.8033 82.3751 51.8051C77.5933 46.8232 85.597 37.6067 90.0896 44.5372C91.8075 48.548 91.1186 53.1893 91.4759 57.4655C91.5386 63.7526 91.6637 70.0454 91.41 76.3584C91.8913 81.0584 88.395 84.3653 83.7552 84.2687C79.1153 84.172 70.313 88.0144 69.3381 80.9824Z" fill="#111111"/>
<path d="M100.768 44.9442C100.846 44.0637 101.183 43.226 101.737 42.5372C102.291 41.8484 103.037 41.3393 103.88 41.0743C104.723 40.8094 105.626 40.8004 106.475 41.0487C107.323 41.2969 108.079 41.7911 108.646 42.4689C109.214 43.1466 109.568 43.9774 109.663 44.8562C109.758 45.735 109.591 46.6224 109.182 47.406C108.773 48.1897 108.141 48.8345 107.365 49.2589C106.59 49.6832 105.706 49.8682 104.825 49.7902C103.645 49.6857 102.554 49.1164 101.793 48.2076C101.032 47.2988 100.663 46.1249 100.768 44.9442Z" fill="#111111"/>
<path d="M100.869 53.5331C100.947 52.6526 101.284 51.8148 101.838 51.126C102.392 50.4372 103.138 49.9281 103.982 49.6631C104.825 49.3982 105.728 49.3893 106.576 49.6376C107.425 49.8858 108.18 50.3799 108.748 51.0576C109.315 51.7354 109.669 52.5663 109.764 53.4451C109.86 54.3239 109.692 55.2111 109.283 55.9948C108.874 56.7785 108.242 57.4234 107.467 57.8478C106.691 58.2721 105.808 58.4571 104.927 58.3791C103.746 58.2746 102.655 57.7053 101.894 56.7965C101.133 55.8877 100.765 54.7138 100.869 53.5331Z" fill="#111111"/>
<path d="M100.711 62.1053C100.789 61.2248 101.127 60.3872 101.681 59.6983C102.235 59.0095 102.98 58.5004 103.824 58.2355C104.667 57.9705 105.57 57.9616 106.418 58.2098C107.267 58.458 108.023 58.9523 108.59 59.63C109.158 60.3077 109.511 61.1385 109.607 62.0173C109.702 62.8961 109.535 63.7835 109.126 64.5672C108.717 65.3508 108.085 65.9956 107.309 66.42C106.534 66.8444 105.65 67.0293 104.769 66.9514C103.589 66.8468 102.498 66.2776 101.737 65.3688C100.976 64.4599 100.607 63.2861 100.711 62.1053Z" fill="#111111"/>
<path d="M99.6723 72.9364C99.7503 72.0559 100.088 71.2181 100.642 70.5293C101.196 69.8405 101.941 69.3314 102.785 69.0665C103.628 68.8015 104.531 68.7927 105.379 69.0409C106.228 69.2891 106.983 69.7833 107.551 70.4611C108.119 71.1388 108.472 71.9696 108.568 72.8484C108.663 73.7272 108.496 74.6145 108.087 75.3981C107.678 76.1818 107.045 76.8267 106.27 77.2511C105.495 77.6755 104.611 77.8604 103.73 77.7824C102.55 77.6779 101.459 77.1086 100.698 76.1998C99.9367 75.291 99.5678 74.1171 99.6723 72.9364Z" fill="#111111"/>
<path d="M110.766 42.1863C110.844 41.3058 111.181 40.4681 111.735 39.7793C112.289 39.0905 113.035 38.5814 113.878 38.3165C114.722 38.0515 115.625 38.0427 116.473 38.2909C117.322 38.5391 118.077 39.0332 118.645 39.711C119.212 40.3887 119.566 41.2196 119.661 42.0984C119.757 42.9772 119.589 43.8645 119.18 44.6481C118.771 45.4318 118.139 46.0766 117.364 46.501C116.588 46.9254 115.705 47.1103 114.824 47.0323C113.643 46.9278 112.552 46.3586 111.791 45.4498C111.03 44.541 110.662 43.367 110.766 42.1863Z" fill="#111111"/>
<path d="M127.389 42.3563C127.467 41.4758 127.804 40.6381 128.358 39.9493C128.912 39.2605 129.658 38.7514 130.501 38.4865C131.344 38.2215 132.247 38.2126 133.096 38.4608C133.944 38.709 134.7 39.2032 135.267 39.881C135.835 40.5587 136.189 41.3895 136.284 42.2683C136.379 43.1471 136.212 44.0345 135.803 44.8181C135.394 45.6018 134.762 46.2466 133.986 46.671C133.211 47.0954 132.327 47.2803 131.447 47.2023C130.266 47.0978 129.175 46.5285 128.414 45.6197C127.653 44.7109 127.284 43.537 127.389 42.3563Z" fill="#111111"/>
<path d="M141.856 42.2457C142.393 36.1732 153.804 36.923 153.191 43.1413C152.707 49.2186 141.251 48.4737 141.856 42.2457Z" fill="#111111"/>
<path d="M157.327 41.533C157.405 40.6525 157.742 39.8149 158.296 39.1261C158.85 38.4373 159.596 37.9282 160.439 37.6632C161.282 37.3983 162.185 37.3893 163.034 37.6375C163.882 37.8858 164.638 38.38 165.205 39.0577C165.773 39.7355 166.127 40.5662 166.222 41.445C166.317 42.3238 166.15 43.2112 165.741 43.9949C165.332 44.7786 164.7 45.4233 163.924 45.8477C163.149 46.2721 162.265 46.457 161.385 46.3791C160.204 46.2746 159.113 45.7053 158.352 44.7965C157.591 43.8877 157.222 42.7138 157.327 41.533Z" fill="#111111"/>
<path d="M172.877 40.9266C172.955 40.0461 173.293 39.2085 173.847 38.5196C174.401 37.8308 175.147 37.3217 175.99 37.0568C176.833 36.7918 177.736 36.7829 178.584 37.0311C179.433 37.2793 180.189 37.7735 180.756 38.4513C181.324 39.129 181.677 39.9598 181.773 40.8386C181.868 41.7174 181.701 42.6047 181.292 43.3883C180.883 44.172 180.251 44.8169 179.475 45.2413C178.7 45.6657 177.816 45.8506 176.935 45.7726C175.755 45.6681 174.664 45.0988 173.903 44.19C173.142 43.2812 172.773 42.1073 172.877 40.9266V40.9266Z" fill="#111111"/>
<path d="M107.74 79.6258C107.818 78.7453 108.155 77.9077 108.709 77.2189C109.263 76.53 110.009 76.021 110.853 75.756C111.696 75.491 112.599 75.4821 113.447 75.7303C114.296 75.9785 115.051 76.4728 115.619 77.1505C116.186 77.8282 116.54 78.659 116.636 79.5378C116.731 80.4166 116.564 81.304 116.155 82.0877C115.746 82.8714 115.113 83.5161 114.338 83.9405C113.563 84.3649 112.679 84.5498 111.798 84.4719C110.617 84.3674 109.527 83.7981 108.766 82.8893C108.005 81.9804 107.636 80.8066 107.74 79.6258Z" fill="#111111"/>
<path d="M125.461 78.9334C125.539 78.0528 125.877 77.2152 126.431 76.5264C126.985 75.8376 127.73 75.3285 128.574 75.0635C129.417 74.7986 130.32 74.7897 131.168 75.038C132.017 75.2862 132.773 75.7803 133.34 76.458C133.908 77.1358 134.261 77.9667 134.357 78.8455C134.452 79.7243 134.285 80.6115 133.876 81.3952C133.467 82.1789 132.835 82.8236 132.059 83.248C131.284 83.6724 130.4 83.8573 129.519 83.7794C128.339 83.6749 127.248 83.1057 126.487 82.1969C125.726 81.2881 125.357 80.1141 125.461 78.9334Z" fill="#111111"/>
<path d="M140.821 78.4705C140.899 77.59 141.236 76.7524 141.79 76.0636C142.344 75.3748 143.09 74.8657 143.933 74.6007C144.777 74.3358 145.679 74.3268 146.528 74.575C147.376 74.8233 148.132 75.3175 148.7 75.9952C149.267 76.673 149.621 77.5037 149.716 78.3825C149.811 79.2613 149.644 80.1486 149.235 80.9323C148.826 81.716 148.194 82.3608 147.419 82.7852C146.643 83.2096 145.759 83.3945 144.879 83.3166C143.698 83.2121 142.607 82.6428 141.846 81.734C141.085 80.8252 140.716 79.6513 140.821 78.4705V78.4705Z" fill="#111111"/>
<path d="M151.286 78.4461C151.364 77.5656 151.701 76.728 152.255 76.0392C152.809 75.3503 153.555 74.8413 154.398 74.5763C155.242 74.3113 156.145 74.3024 156.993 74.5506C157.842 74.7988 158.597 75.2931 159.165 75.9708C159.732 76.6485 160.086 77.4793 160.181 78.3581C160.277 79.2369 160.109 80.1243 159.7 80.908C159.291 81.6917 158.659 82.3364 157.884 82.7608C157.108 83.1852 156.225 83.3701 155.344 83.2922C154.163 83.1877 153.072 82.6184 152.311 81.7096C151.55 80.8008 151.182 79.6269 151.286 78.4461Z" fill="#111111"/>
<path d="M164.809 78.2518C164.887 77.3713 165.224 76.5336 165.778 75.8448C166.332 75.1559 167.078 74.6468 167.921 74.3819C168.765 74.1169 169.668 74.1081 170.516 74.3563C171.364 74.6045 172.12 75.0988 172.688 75.7765C173.255 76.4542 173.609 77.285 173.704 78.1638C173.8 79.0426 173.632 79.9299 173.223 80.7136C172.814 81.4972 172.182 82.1421 171.407 82.5665C170.631 82.9909 169.748 83.1758 168.867 83.0979C167.686 82.9934 166.595 82.4241 165.834 81.5153C165.073 80.6065 164.705 79.4326 164.809 78.2518Z" fill="#111111"/>
<path d="M181.559 46.37C181.637 45.4894 181.974 44.6518 182.528 43.963C183.082 43.2742 183.828 42.7651 184.671 42.5001C185.514 42.2352 186.417 42.2262 187.265 42.4744C188.114 42.7227 188.87 43.2169 189.437 43.8946C190.005 44.5724 190.359 45.4031 190.454 46.282C190.549 47.1608 190.382 48.0481 189.973 48.8318C189.564 49.6155 188.932 50.2602 188.156 50.6846C187.381 51.109 186.497 51.2939 185.617 51.216C184.44 51.1002 183.356 50.5278 182.598 49.6217C181.839 48.7156 181.466 47.5481 181.559 46.37V46.37Z" fill="#111111"/>
<path d="M180.61 59.1991C180.688 58.3185 181.026 57.4809 181.58 56.7921C182.134 56.1033 182.879 55.5942 183.723 55.3292C184.566 55.0643 185.469 55.0553 186.317 55.3035C187.166 55.5518 187.921 56.046 188.489 56.7237C189.056 57.4015 189.41 58.2322 189.506 59.1111C189.601 59.9899 189.434 60.8772 189.025 61.6609C188.616 62.4446 187.983 63.0893 187.208 63.5137C186.433 63.9381 185.549 64.123 184.668 64.0451C183.488 63.9406 182.397 63.3713 181.636 62.4625C180.875 61.5537 180.506 60.3798 180.61 59.1991Z" fill="#111111"/>
<path d="M181.868 76.1278C181.946 75.2473 182.283 74.4096 182.837 73.7208C183.391 73.032 184.137 72.5229 184.98 72.2579C185.823 71.993 186.726 71.984 187.575 72.2323C188.423 72.4805 189.179 72.9747 189.746 73.6524C190.314 74.3302 190.668 75.161 190.763 76.0398C190.858 76.9186 190.691 77.806 190.282 78.5896C189.873 79.3733 189.241 80.0181 188.465 80.4425C187.69 80.8668 186.806 81.0518 185.926 80.9738C184.745 80.8693 183.654 80.3 182.893 79.3912C182.132 78.4824 181.763 77.3085 181.868 76.1278Z" fill="#111111"/>
<path d="M7.41962 106.121C7.53541 104.944 8.10783 103.861 9.01392 103.102C9.92 102.343 11.0875 101.97 12.2657 102.063C17.5101 102.527 22.7908 102.581 27.7601 102.707C50.217 102.451 73.1993 102.242 95.5691 103.074C112.991 103.44 130.418 103.332 147.829 102.602C149.01 102.558 150.162 102.979 151.036 103.774C151.91 104.57 152.438 105.677 152.505 106.857C152.243 114.677 139.024 110.832 133.754 111.972C106.536 112.901 79.2754 111.054 52.141 111.434C42.2081 111.524 32.2676 111.802 22.3345 111.488C17.4243 110.694 7.59805 113.432 7.41962 106.121Z" fill="#111111"/>
<path d="M8.27514 131.834C5.39793 129.363 7.23862 124.079 11.0884 124.078C15.575 124.081 20.0012 124.158 24.4625 124.042C39.5254 123.58 54.5855 123.657 69.6555 123.824C84.0043 123.928 98.406 123.435 112.803 122.995C122.889 122.488 132.994 121.973 143.096 122.509C144.277 122.613 145.368 123.182 146.129 124.091C146.89 125 147.259 126.174 147.154 127.355C146.67 132.83 139.637 131.176 136.239 131.243C126.919 131.002 117.624 131.893 108.346 132.086C88.7971 132.841 69.2537 132.825 49.7009 132.611C39.6853 132.622 29.6807 132.912 19.6606 133.075C15.9094 132.671 11.4659 134.108 8.27514 131.834Z" fill="#111111"/>
</g>
<defs>
<clipPath id="clip0_1690_53266">
<rect width="205" height="140" fill="white"/>
</clipPath>
</defs>
</svg>
