<svg width="283" height="182" viewBox="0 0 283 182" fill="none" xmlns="http://www.w3.org/2000/svg">
<g filter="url(#filter0_d_1705_53235)">
<mask id="path-1-inside-1_1705_53235" fill="white">
<path fill-rule="evenodd" clip-rule="evenodd" d="M12 0C5.37258 0 0 5.37258 0 12V140C0 146.627 5.37259 152 12 152H184V175.172C184 176.953 186.154 177.846 187.414 176.586L212 152H267C273.627 152 279 146.627 279 140V12C279 5.37258 273.627 0 267 0H12Z"/>
</mask>
<path fill-rule="evenodd" clip-rule="evenodd" d="M12 0C5.37258 0 0 5.37258 0 12V140C0 146.627 5.37259 152 12 152H184V175.172C184 176.953 186.154 177.846 187.414 176.586L212 152H267C273.627 152 279 146.627 279 140V12C279 5.37258 273.627 0 267 0H12Z" fill="white"/>
<path d="M184 152H186V150H184V152ZM212 152V150H211.172L210.586 150.586L212 152ZM2 12C2 6.47715 6.47715 2 12 2V-2C4.26801 -2 -2 4.26801 -2 12H2ZM2 140V12H-2V140H2ZM12 150C6.47716 150 2 145.523 2 140H-2C-2 147.732 4.26802 154 12 154V150ZM184 150H12V154H184V150ZM186 175.172V152H182V175.172H186ZM186 175.172L186 175.172H182C182 178.735 186.309 180.52 188.828 178L186 175.172ZM210.586 150.586L186 175.172L188.828 178L213.414 153.414L210.586 150.586ZM267 150H212V154H267V150ZM277 140C277 145.523 272.523 150 267 150V154C274.732 154 281 147.732 281 140H277ZM277 12V140H281V12H277ZM267 2C272.523 2 277 6.47715 277 12H281C281 4.26801 274.732 -2 267 -2V2ZM12 2H267V-2H12V2Z" fill="black" mask="url(#path-1-inside-1_1705_53235)"/>
</g>
<path d="M24.912 35H26.446V25.315H25.068C24.834 26.342 23.872 27.304 22.351 27.343V28.864C23.222 28.877 24.262 28.591 24.912 28.006V35ZM30.2878 30.307C31.6918 30.307 32.5628 29.202 32.5628 27.798C32.5628 26.394 31.6918 25.289 30.2878 25.289C28.8838 25.289 28.0128 26.394 28.0128 27.798C28.0128 29.202 28.8838 30.307 30.2878 30.307ZM31.0418 35.156L37.0868 26.056L35.8518 25.289L29.8328 34.363L31.0418 35.156ZM30.2878 28.916C29.7028 28.916 29.4038 28.422 29.4038 27.798C29.4038 27.174 29.7028 26.68 30.2878 26.68C30.8728 26.68 31.1718 27.174 31.1718 27.798C31.1718 28.422 30.8728 28.916 30.2878 28.916ZM36.7488 35.156C38.1528 35.156 39.0238 34.051 39.0238 32.647C39.0238 31.243 38.1528 30.138 36.7488 30.138C35.3448 30.138 34.4738 31.243 34.4738 32.647C34.4738 34.051 35.3448 35.156 36.7488 35.156ZM36.7488 33.765C36.1638 33.765 35.8648 33.271 35.8648 32.647C35.8648 32.023 36.1638 31.529 36.7488 31.529C37.3338 31.529 37.6328 32.023 37.6328 32.647C37.6328 33.271 37.3338 33.765 36.7488 33.765ZM46.484 35.156C47.875 35.156 48.967 34.337 49.383 32.686L47.875 32.309C47.667 33.102 47.16 33.609 46.471 33.609C45.548 33.609 44.872 32.673 44.872 31.477C44.872 30.307 45.509 29.41 46.484 29.41C47.056 29.41 47.537 29.722 47.823 30.45L49.344 30.06C48.876 28.682 47.797 27.863 46.432 27.863C44.586 27.863 43.286 29.371 43.286 31.477C43.286 33.57 44.495 35.156 46.484 35.156ZM53.4008 35.156C55.4288 35.156 56.9888 33.609 56.9888 31.516C56.9888 29.423 55.4288 27.863 53.4008 27.863C51.3728 27.863 49.8128 29.423 49.8128 31.516C49.8128 33.609 51.3728 35.156 53.4008 35.156ZM53.4008 33.635C52.3088 33.635 51.4248 32.699 51.4248 31.516C51.4248 30.333 52.3088 29.41 53.4008 29.41C54.4928 29.41 55.3768 30.333 55.3768 31.516C55.3768 32.699 54.4928 33.635 53.4008 33.635ZM57.7737 34.987H59.3467V30.918C59.6457 29.943 60.4127 29.41 61.2447 29.41C61.9987 29.41 62.5447 29.878 62.5447 30.879V34.987H64.1047V30.554C64.1047 28.838 63.0387 27.863 61.5567 27.863C60.7507 27.863 59.9967 28.136 59.3467 28.799V27.98H57.7737V34.987ZM67.4378 35H68.6468L71.3768 27.98H69.7518L68.0488 32.491L66.3458 27.98H64.6948L67.4378 35ZM74.9641 35.156C76.2251 35.156 77.2131 34.571 77.9021 33.336L76.6671 32.595C76.3161 33.271 75.7051 33.622 74.9771 33.622C74.0151 33.622 73.3781 32.972 73.2351 32.023H78.0061V31.49C78.0061 29.306 76.7841 27.863 74.8861 27.863C72.9361 27.863 71.6361 29.345 71.6361 31.49C71.6361 33.635 72.9361 35.156 74.9641 35.156ZM73.3001 30.697C73.4691 29.943 74.0671 29.384 74.8991 29.384C75.7051 29.384 76.2771 29.917 76.3681 30.697H73.3001ZM78.8585 35H80.4185V31.776C80.4185 30.385 81.2115 29.683 82.7585 29.722V27.928C81.6925 27.863 80.9905 28.162 80.4185 28.916V27.98H78.8585V35ZM86.0342 35.156C87.6982 35.156 88.7902 34.363 88.7902 33.089C88.7902 32.036 88.0102 31.373 86.2162 30.827C85.1372 30.515 84.7602 30.268 84.7602 29.904C84.7602 29.527 85.1632 29.306 85.8522 29.306C86.6062 29.306 87.0612 29.592 87.3342 30.229L88.7772 29.813C88.3222 28.526 87.3212 27.85 85.8392 27.85C84.2662 27.85 83.1742 28.617 83.1742 29.813C83.1742 30.814 83.9412 31.542 85.6832 32.114C86.7752 32.452 87.2562 32.751 87.2562 33.128C87.2562 33.492 86.7752 33.752 86.0732 33.752C85.2542 33.752 84.6692 33.414 84.4092 32.699L82.9922 33.128C83.3952 34.441 84.4482 35.156 86.0342 35.156ZM90.7967 26.836C91.3557 26.836 91.7977 26.394 91.7977 25.848C91.7977 25.289 91.3557 24.86 90.7967 24.86C90.2507 24.86 89.8087 25.289 89.8087 25.848C89.8087 26.394 90.2507 26.836 90.7967 26.836ZM90.0167 35H91.5767V27.98H90.0167V35ZM96.1454 35.156C98.1734 35.156 99.7334 33.609 99.7334 31.516C99.7334 29.423 98.1734 27.863 96.1454 27.863C94.1174 27.863 92.5574 29.423 92.5574 31.516C92.5574 33.609 94.1174 35.156 96.1454 35.156ZM96.1454 33.635C95.0534 33.635 94.1694 32.699 94.1694 31.516C94.1694 30.333 95.0534 29.41 96.1454 29.41C97.2374 29.41 98.1214 30.333 98.1214 31.516C98.1214 32.699 97.2374 33.635 96.1454 33.635ZM100.518 34.987H102.091V30.918C102.39 29.943 103.157 29.41 103.989 29.41C104.743 29.41 105.289 29.878 105.289 30.879V34.987H106.849V30.554C106.849 28.838 105.783 27.863 104.301 27.863C103.495 27.863 102.741 28.136 102.091 28.799V27.98H100.518V34.987ZM112.52 26.836C113.079 26.836 113.521 26.394 113.521 25.848C113.521 25.289 113.079 24.86 112.52 24.86C111.974 24.86 111.532 25.289 111.532 25.848C111.532 26.394 111.974 26.836 112.52 26.836ZM111.74 35H113.3V27.98H111.74V35ZM117.388 35.156C119.052 35.156 120.144 34.363 120.144 33.089C120.144 32.036 119.364 31.373 117.57 30.827C116.491 30.515 116.114 30.268 116.114 29.904C116.114 29.527 116.517 29.306 117.206 29.306C117.96 29.306 118.415 29.592 118.688 30.229L120.131 29.813C119.676 28.526 118.675 27.85 117.193 27.85C115.62 27.85 114.528 28.617 114.528 29.813C114.528 30.814 115.295 31.542 117.037 32.114C118.129 32.452 118.61 32.751 118.61 33.128C118.61 33.492 118.129 33.752 117.427 33.752C116.608 33.752 116.023 33.414 115.763 32.699L114.346 33.128C114.749 34.441 115.802 35.156 117.388 35.156ZM126.958 35.156C127.777 35.156 128.583 34.896 129.155 34.454C129.389 34.883 129.883 35.156 130.442 35.156C130.663 35.156 130.897 35.117 131.118 35.039V33.7C130.728 33.83 130.429 33.635 130.429 33.245V30.411C130.429 28.786 129.402 27.863 127.725 27.863C126.23 27.863 125.151 28.578 124.761 29.826L126.204 30.346C126.425 29.709 126.945 29.358 127.712 29.358C128.336 29.358 128.765 29.605 128.765 29.982C128.765 30.515 127.907 30.71 126.282 31.152C125.216 31.451 124.488 32.14 124.488 33.154C124.488 34.35 125.502 35.156 126.958 35.156ZM127.101 33.765C126.477 33.765 126.061 33.518 126.061 33.063C126.061 32.231 127.426 32.413 128.882 31.659V33.05C128.466 33.466 127.777 33.765 127.101 33.765ZM137.943 35.156C139.607 35.156 140.699 34.363 140.699 33.089C140.699 32.036 139.919 31.373 138.125 30.827C137.046 30.515 136.669 30.268 136.669 29.904C136.669 29.527 137.072 29.306 137.761 29.306C138.515 29.306 138.97 29.592 139.243 30.229L140.686 29.813C140.231 28.526 139.23 27.85 137.748 27.85C136.175 27.85 135.083 28.617 135.083 29.813C135.083 30.814 135.85 31.542 137.592 32.114C138.684 32.452 139.165 32.751 139.165 33.128C139.165 33.492 138.684 33.752 137.982 33.752C137.163 33.752 136.578 33.414 136.318 32.699L134.901 33.128C135.304 34.441 136.357 35.156 137.943 35.156ZM144.005 35.156C144.824 35.156 145.63 34.896 146.202 34.454C146.436 34.883 146.93 35.156 147.489 35.156C147.71 35.156 147.944 35.117 148.165 35.039V33.7C147.775 33.83 147.476 33.635 147.476 33.245V30.411C147.476 28.786 146.449 27.863 144.772 27.863C143.277 27.863 142.198 28.578 141.808 29.826L143.251 30.346C143.472 29.709 143.992 29.358 144.759 29.358C145.383 29.358 145.812 29.605 145.812 29.982C145.812 30.515 144.954 30.71 143.329 31.152C142.263 31.451 141.535 32.14 141.535 33.154C141.535 34.35 142.549 35.156 144.005 35.156ZM144.148 33.765C143.524 33.765 143.108 33.518 143.108 33.063C143.108 32.231 144.473 32.413 145.929 31.659V33.05C145.513 33.466 144.824 33.765 144.148 33.765ZM151.821 35.156C152.133 35.156 152.432 35.13 152.692 35.104V33.596H151.873C151.496 33.596 151.236 33.44 151.236 32.699V29.501H152.627V27.98H151.236V26.017H149.676V27.98H148.532V29.501H149.676V33.063C149.676 34.558 150.3 35.156 151.821 35.156ZM154.595 26.836C155.154 26.836 155.596 26.394 155.596 25.848C155.596 25.289 155.154 24.86 154.595 24.86C154.049 24.86 153.607 25.289 153.607 25.848C153.607 26.394 154.049 26.836 154.595 26.836ZM153.815 35H155.375V27.98H153.815V35ZM159.463 35.156C161.127 35.156 162.219 34.363 162.219 33.089C162.219 32.036 161.439 31.373 159.645 30.827C158.566 30.515 158.189 30.268 158.189 29.904C158.189 29.527 158.592 29.306 159.281 29.306C160.035 29.306 160.49 29.592 160.763 30.229L162.206 29.813C161.751 28.526 160.75 27.85 159.268 27.85C157.695 27.85 156.603 28.617 156.603 29.813C156.603 30.814 157.37 31.542 159.112 32.114C160.204 32.452 160.685 32.751 160.685 33.128C160.685 33.492 160.204 33.752 159.502 33.752C158.683 33.752 158.098 33.414 157.838 32.699L156.421 33.128C156.824 34.441 157.877 35.156 159.463 35.156ZM163.952 35H165.499V29.618H166.812V28.11H165.499V27.304C165.499 26.797 165.642 26.563 166.266 26.563C166.448 26.563 166.656 26.589 166.877 26.628V25.172C166.552 25.094 166.201 25.055 165.876 25.055C164.576 25.055 163.952 25.653 163.952 26.81V28.11H162.86V29.618H163.952V35ZM169.909 35.156C170.728 35.156 171.534 34.896 172.106 34.454C172.34 34.883 172.834 35.156 173.393 35.156C173.614 35.156 173.848 35.117 174.069 35.039V33.7C173.679 33.83 173.38 33.635 173.38 33.245V30.411C173.38 28.786 172.353 27.863 170.676 27.863C169.181 27.863 168.102 28.578 167.712 29.826L169.155 30.346C169.376 29.709 169.896 29.358 170.663 29.358C171.287 29.358 171.716 29.605 171.716 29.982C171.716 30.515 170.858 30.71 169.233 31.152C168.167 31.451 167.439 32.14 167.439 33.154C167.439 34.35 168.453 35.156 169.909 35.156ZM170.052 33.765C169.428 33.765 169.012 33.518 169.012 33.063C169.012 32.231 170.377 32.413 171.833 31.659V33.05C171.417 33.466 170.728 33.765 170.052 33.765ZM177.569 35.156C178.96 35.156 180.052 34.337 180.468 32.686L178.96 32.309C178.752 33.102 178.245 33.609 177.556 33.609C176.633 33.609 175.957 32.673 175.957 31.477C175.957 30.307 176.594 29.41 177.569 29.41C178.141 29.41 178.622 29.722 178.908 30.45L180.429 30.06C179.961 28.682 178.882 27.863 177.517 27.863C175.671 27.863 174.371 29.371 174.371 31.477C174.371 33.57 175.58 35.156 177.569 35.156ZM184.342 35.156C184.654 35.156 184.953 35.13 185.213 35.104V33.596H184.394C184.017 33.596 183.757 33.44 183.757 32.699V29.501H185.148V27.98H183.757V26.017H182.197V27.98H181.053V29.501H182.197V33.063C182.197 34.558 182.821 35.156 184.342 35.156ZM189.301 35.156C191.329 35.156 192.889 33.609 192.889 31.516C192.889 29.423 191.329 27.863 189.301 27.863C187.273 27.863 185.713 29.423 185.713 31.516C185.713 33.609 187.273 35.156 189.301 35.156ZM189.301 33.635C188.209 33.635 187.325 32.699 187.325 31.516C187.325 30.333 188.209 29.41 189.301 29.41C190.393 29.41 191.277 30.333 191.277 31.516C191.277 32.699 190.393 33.635 189.301 33.635ZM193.673 35H195.233V31.776C195.233 30.385 196.026 29.683 197.573 29.722V27.928C196.507 27.863 195.805 28.162 195.233 28.916V27.98H193.673V35ZM197.846 38.029C199.705 38.055 200.316 37.678 200.888 36.144L203.904 27.98H202.266L200.784 32.088L199.224 27.98H197.573L199.978 34.298L199.497 35.546C199.237 36.222 198.847 36.43 197.846 36.456V38.029ZM210.682 35.156C212.346 35.156 213.438 34.363 213.438 33.089C213.438 32.036 212.658 31.373 210.864 30.827C209.785 30.515 209.408 30.268 209.408 29.904C209.408 29.527 209.811 29.306 210.5 29.306C211.254 29.306 211.709 29.592 211.982 30.229L213.425 29.813C212.97 28.526 211.969 27.85 210.487 27.85C208.914 27.85 207.822 28.617 207.822 29.813C207.822 30.814 208.589 31.542 210.331 32.114C211.423 32.452 211.904 32.751 211.904 33.128C211.904 33.492 211.423 33.752 210.721 33.752C209.902 33.752 209.317 33.414 209.057 32.699L207.64 33.128C208.043 34.441 209.096 35.156 210.682 35.156ZM217.486 35.156C217.798 35.156 218.097 35.13 218.357 35.104V33.596H217.538C217.161 33.596 216.901 33.44 216.901 32.699V29.501H218.292V27.98H216.901V26.017H215.341V27.98H214.197V29.501H215.341V33.063C215.341 34.558 215.965 35.156 217.486 35.156ZM221.56 35.156C222.379 35.156 223.185 34.896 223.757 34.454C223.991 34.883 224.485 35.156 225.044 35.156C225.265 35.156 225.499 35.117 225.72 35.039V33.7C225.33 33.83 225.031 33.635 225.031 33.245V30.411C225.031 28.786 224.004 27.863 222.327 27.863C220.832 27.863 219.753 28.578 219.363 29.826L220.806 30.346C221.027 29.709 221.547 29.358 222.314 29.358C222.938 29.358 223.367 29.605 223.367 29.982C223.367 30.515 222.509 30.71 220.884 31.152C219.818 31.451 219.09 32.14 219.09 33.154C219.09 34.35 220.104 35.156 221.56 35.156ZM221.703 33.765C221.079 33.765 220.663 33.518 220.663 33.063C220.663 32.231 222.028 32.413 223.484 31.659V33.05C223.068 33.466 222.379 33.765 221.703 33.765ZM226.36 34.987H227.933V30.918C228.232 29.943 228.999 29.41 229.831 29.41C230.585 29.41 231.131 29.878 231.131 30.879V34.987H232.691V30.554C232.691 28.838 231.625 27.863 230.143 27.863C229.337 27.863 228.583 28.136 227.933 28.799V27.98H226.36V34.987ZM236.505 35.156C237.233 35.156 237.857 34.883 238.312 34.246V35H239.898V25.172H238.312V28.643C237.818 28.11 237.194 27.85 236.505 27.85C234.802 27.85 233.528 29.423 233.528 31.516C233.528 33.596 234.75 35.156 236.505 35.156ZM236.7 33.609C235.751 33.609 235.114 32.699 235.114 31.529C235.114 30.359 235.764 29.449 236.687 29.449C237.636 29.449 238.299 30.398 238.299 31.555C238.299 32.725 237.636 33.609 236.7 33.609ZM243.368 35.156C244.187 35.156 244.993 34.896 245.565 34.454C245.799 34.883 246.293 35.156 246.852 35.156C247.073 35.156 247.307 35.117 247.528 35.039V33.7C247.138 33.83 246.839 33.635 246.839 33.245V30.411C246.839 28.786 245.812 27.863 244.135 27.863C242.64 27.863 241.561 28.578 241.171 29.826L242.614 30.346C242.835 29.709 243.355 29.358 244.122 29.358C244.746 29.358 245.175 29.605 245.175 29.982C245.175 30.515 244.317 30.71 242.692 31.152C241.626 31.451 240.898 32.14 240.898 33.154C240.898 34.35 241.912 35.156 243.368 35.156ZM243.511 33.765C242.887 33.765 242.471 33.518 242.471 33.063C242.471 32.231 243.836 32.413 245.292 31.659V33.05C244.876 33.466 244.187 33.765 243.511 33.765ZM248.168 35H249.728V31.776C249.728 30.385 250.521 29.683 252.068 29.722V27.928C251.002 27.863 250.3 28.162 249.728 28.916V27.98H248.168V35ZM255.292 35.156C256.02 35.156 256.644 34.883 257.099 34.246V35H258.685V25.172H257.099V28.643C256.605 28.11 255.981 27.85 255.292 27.85C253.589 27.85 252.315 29.423 252.315 31.516C252.315 33.596 253.537 35.156 255.292 35.156ZM255.487 33.609C254.538 33.609 253.901 32.699 253.901 31.529C253.901 30.359 254.551 29.449 255.474 29.449C256.423 29.449 257.086 30.398 257.086 31.555C257.086 32.725 256.423 33.609 255.487 33.609ZM23.768 44.836C24.327 44.836 24.769 44.394 24.769 43.848C24.769 43.289 24.327 42.86 23.768 42.86C23.222 42.86 22.78 43.289 22.78 43.848C22.78 44.394 23.222 44.836 23.768 44.836ZM22.988 53H24.548V45.98H22.988V53ZM25.9577 52.987H27.5307V48.918C27.8297 47.943 28.5967 47.41 29.4287 47.41C30.1827 47.41 30.7287 47.878 30.7287 48.879V52.987H32.2887V48.554C32.2887 46.838 31.2227 45.863 29.7407 45.863C28.9347 45.863 28.1807 46.136 27.5307 46.799V45.98H25.9577V52.987ZM37.0103 53H38.5703V46.968L40.9753 53H42.4573L44.8103 46.981V53H46.3703V43.224H44.6933L41.7163 50.829L38.6873 43.224H37.0103V53ZM51.3195 53.247C53.5295 53.247 54.9725 52.116 54.9725 50.4C54.9725 48.957 53.9455 47.943 51.5405 47.189C49.8115 46.656 49.2265 46.227 49.2265 45.603C49.2265 44.927 49.9285 44.537 51.0205 44.537C52.2035 44.537 52.8665 45.005 53.1395 45.98L54.7515 45.629C54.3225 43.887 53.1135 42.99 51.0985 42.99C48.9535 42.99 47.6145 43.991 47.6145 45.577C47.6145 46.994 48.6675 47.982 50.9685 48.658C52.6585 49.152 53.3735 49.659 53.3735 50.361C53.3735 51.141 52.5025 51.713 51.2545 51.713C49.9675 51.713 49.2005 51.102 48.9535 49.88L47.4195 50.218C47.7575 52.181 49.1355 53.247 51.3195 53.247ZM56.0223 53H57.5953V46.019L62.1843 53H63.6923V43.224H62.1323V50.179L57.5563 43.224H56.0223V53ZM71.8121 53.156C73.5801 53.156 74.8021 51.596 74.8021 49.503C74.8021 47.41 73.5411 45.85 71.8251 45.85C71.1361 45.85 70.4991 46.097 70.0181 46.643V43.172H68.4321V53H70.0181V52.246C70.4731 52.896 71.0971 53.156 71.8121 53.156ZM71.6171 51.609C70.6941 51.609 70.0311 50.725 70.0311 49.555C70.0311 48.385 70.6941 47.449 71.6301 47.449C72.5531 47.449 73.2161 48.359 73.2161 49.529C73.2161 50.699 72.5661 51.609 71.6171 51.609ZM78.1943 53.156C79.0133 53.156 79.7673 52.87 80.4173 52.142V53H81.9903V45.993H80.4173V49.984C80.1053 50.998 79.2863 51.583 78.4933 51.583C77.7913 51.583 77.2193 51.128 77.2193 50.166V45.993H75.6593V50.348C75.6593 52.129 76.6213 53.156 78.1943 53.156ZM86.1945 53.156C86.5065 53.156 86.8055 53.13 87.0655 53.104V51.596H86.2465C85.8695 51.596 85.6095 51.44 85.6095 50.699V47.501H87.0005V45.98H85.6095V44.017H84.0495V45.98H82.9055V47.501H84.0495V51.063C84.0495 52.558 84.6735 53.156 86.1945 53.156ZM94.517 53.156C94.829 53.156 95.128 53.13 95.388 53.104V51.596H94.569C94.192 51.596 93.932 51.44 93.932 50.699V47.501H95.323V45.98H93.932V44.017H92.372V45.98H91.228V47.501H92.372V51.063C92.372 52.558 92.996 53.156 94.517 53.156ZM96.2901 52.987H97.8631V48.918C98.1621 47.943 98.9291 47.423 99.7611 47.423C100.515 47.423 101.061 47.878 101.061 48.892V52.987H102.621V48.567C102.621 46.838 101.555 45.863 100.073 45.863C99.2671 45.863 98.5261 46.149 97.8631 46.799V43.172H96.2901V52.987ZM106.825 53.156C108.086 53.156 109.074 52.571 109.763 51.336L108.528 50.595C108.177 51.271 107.566 51.622 106.838 51.622C105.876 51.622 105.239 50.972 105.096 50.023H109.867V49.49C109.867 47.306 108.645 45.863 106.747 45.863C104.797 45.863 103.497 47.345 103.497 49.49C103.497 51.635 104.797 53.156 106.825 53.156ZM105.161 48.697C105.33 47.943 105.928 47.384 106.76 47.384C107.566 47.384 108.138 47.917 108.229 48.697H105.161ZM110.72 53H112.28V49.776C112.28 48.385 113.073 47.683 114.62 47.722V45.928C113.554 45.863 112.852 46.162 112.28 46.916V45.98H110.72V53ZM118.207 53.156C119.468 53.156 120.456 52.571 121.145 51.336L119.91 50.595C119.559 51.271 118.948 51.622 118.22 51.622C117.258 51.622 116.621 50.972 116.478 50.023H121.249V49.49C121.249 47.306 120.027 45.863 118.129 45.863C116.179 45.863 114.879 47.345 114.879 49.49C114.879 51.635 116.179 53.156 118.207 53.156ZM116.543 48.697C116.712 47.943 117.31 47.384 118.142 47.384C118.948 47.384 119.52 47.917 119.611 48.697H116.543ZM127.325 53H128.586L130.094 48.229L131.55 53H132.811L135.06 45.98H133.435L132.174 50.348L130.861 45.98H129.262L127.949 50.348L126.688 45.98H125.076L127.325 53ZM137.993 53.156C138.812 53.156 139.618 52.896 140.19 52.454C140.424 52.883 140.918 53.156 141.477 53.156C141.698 53.156 141.932 53.117 142.153 53.039V51.7C141.763 51.83 141.464 51.635 141.464 51.245V48.411C141.464 46.786 140.437 45.863 138.76 45.863C137.265 45.863 136.186 46.578 135.796 47.826L137.239 48.346C137.46 47.709 137.98 47.358 138.747 47.358C139.371 47.358 139.8 47.605 139.8 47.982C139.8 48.515 138.942 48.71 137.317 49.152C136.251 49.451 135.523 50.14 135.523 51.154C135.523 52.35 136.537 53.156 137.993 53.156ZM138.136 51.765C137.512 51.765 137.096 51.518 137.096 51.063C137.096 50.231 138.461 50.413 139.917 49.659V51.05C139.501 51.466 138.812 51.765 138.136 51.765ZM145.471 53.156C147.135 53.156 148.227 52.363 148.227 51.089C148.227 50.036 147.447 49.373 145.653 48.827C144.574 48.515 144.197 48.268 144.197 47.904C144.197 47.527 144.6 47.306 145.289 47.306C146.043 47.306 146.498 47.592 146.771 48.229L148.214 47.813C147.759 46.526 146.758 45.85 145.276 45.85C143.703 45.85 142.611 46.617 142.611 47.813C142.611 48.814 143.378 49.542 145.12 50.114C146.212 50.452 146.693 50.751 146.693 51.128C146.693 51.492 146.212 51.752 145.51 51.752C144.691 51.752 144.106 51.414 143.846 50.699L142.429 51.128C142.832 52.441 143.885 53.156 145.471 53.156ZM155.041 53.156C155.86 53.156 156.666 52.896 157.238 52.454C157.472 52.883 157.966 53.156 158.525 53.156C158.746 53.156 158.98 53.117 159.201 53.039V51.7C158.811 51.83 158.512 51.635 158.512 51.245V48.411C158.512 46.786 157.485 45.863 155.808 45.863C154.313 45.863 153.234 46.578 152.844 47.826L154.287 48.346C154.508 47.709 155.028 47.358 155.795 47.358C156.419 47.358 156.848 47.605 156.848 47.982C156.848 48.515 155.99 48.71 154.365 49.152C153.299 49.451 152.571 50.14 152.571 51.154C152.571 52.35 153.585 53.156 155.041 53.156ZM155.184 51.765C154.56 51.765 154.144 51.518 154.144 51.063C154.144 50.231 155.509 50.413 156.965 49.659V51.05C156.549 51.466 155.86 51.765 155.184 51.765ZM159.906 53H161.466V43.172H159.906V53ZM165.404 53.156C167.068 53.156 168.16 52.363 168.16 51.089C168.16 50.036 167.38 49.373 165.586 48.827C164.507 48.515 164.13 48.268 164.13 47.904C164.13 47.527 164.533 47.306 165.222 47.306C165.976 47.306 166.431 47.592 166.704 48.229L168.147 47.813C167.692 46.526 166.691 45.85 165.209 45.85C163.636 45.85 162.544 46.617 162.544 47.813C162.544 48.814 163.311 49.542 165.053 50.114C166.145 50.452 166.626 50.751 166.626 51.128C166.626 51.492 166.145 51.752 165.443 51.752C164.624 51.752 164.039 51.414 163.779 50.699L162.362 51.128C162.765 52.441 163.818 53.156 165.404 53.156ZM172.351 53.156C174.379 53.156 175.939 51.609 175.939 49.516C175.939 47.423 174.379 45.863 172.351 45.863C170.323 45.863 168.763 47.423 168.763 49.516C168.763 51.609 170.323 53.156 172.351 53.156ZM172.351 51.635C171.259 51.635 170.375 50.699 170.375 49.516C170.375 48.333 171.259 47.41 172.351 47.41C173.443 47.41 174.327 48.333 174.327 49.516C174.327 50.699 173.443 51.635 172.351 51.635ZM182.506 53.156C183.325 53.156 184.131 52.896 184.703 52.454C184.937 52.883 185.431 53.156 185.99 53.156C186.211 53.156 186.445 53.117 186.666 53.039V51.7C186.276 51.83 185.977 51.635 185.977 51.245V48.411C185.977 46.786 184.95 45.863 183.273 45.863C181.778 45.863 180.699 46.578 180.309 47.826L181.752 48.346C181.973 47.709 182.493 47.358 183.26 47.358C183.884 47.358 184.313 47.605 184.313 47.982C184.313 48.515 183.455 48.71 181.83 49.152C180.764 49.451 180.036 50.14 180.036 51.154C180.036 52.35 181.05 53.156 182.506 53.156ZM182.649 51.765C182.025 51.765 181.609 51.518 181.609 51.063C181.609 50.231 182.974 50.413 184.43 49.659V51.05C184.014 51.466 183.325 51.765 182.649 51.765ZM193.491 53.156C195.155 53.156 196.247 52.363 196.247 51.089C196.247 50.036 195.467 49.373 193.673 48.827C192.594 48.515 192.217 48.268 192.217 47.904C192.217 47.527 192.62 47.306 193.309 47.306C194.063 47.306 194.518 47.592 194.791 48.229L196.234 47.813C195.779 46.526 194.778 45.85 193.296 45.85C191.723 45.85 190.631 46.617 190.631 47.813C190.631 48.814 191.398 49.542 193.14 50.114C194.232 50.452 194.713 50.751 194.713 51.128C194.713 51.492 194.232 51.752 193.53 51.752C192.711 51.752 192.126 51.414 191.866 50.699L190.449 51.128C190.852 52.441 191.905 53.156 193.491 53.156ZM197.344 53H198.904V43.172H197.344V53ZM201.139 44.836C201.698 44.836 202.14 44.394 202.14 43.848C202.14 43.289 201.698 42.86 201.139 42.86C200.593 42.86 200.151 43.289 200.151 43.848C200.151 44.394 200.593 44.836 201.139 44.836ZM200.359 53H201.919V45.98H200.359V53ZM206.163 56.029C207.957 56.029 209.309 54.911 209.309 52.909V45.98H207.723V46.695C207.229 46.045 206.592 45.863 205.981 45.863C204.226 45.863 202.991 47.345 202.991 49.321C202.991 51.31 204.252 52.792 205.968 52.792C206.644 52.792 207.255 52.545 207.749 52.012V52.935C207.749 53.897 207.073 54.495 206.202 54.495C205.63 54.495 205.019 54.222 204.668 53.494L203.225 54.105C203.797 55.444 204.863 56.029 206.163 56.029ZM206.163 51.206C205.266 51.206 204.577 50.374 204.577 49.295C204.577 48.229 205.253 47.41 206.163 47.41C207.06 47.41 207.723 48.216 207.723 49.308C207.723 50.413 207.034 51.206 206.163 51.206ZM210.467 52.987H212.04V48.918C212.339 47.943 213.106 47.423 213.938 47.423C214.692 47.423 215.238 47.878 215.238 48.892V52.987H216.798V48.567C216.798 46.838 215.732 45.863 214.25 45.863C213.444 45.863 212.703 46.149 212.04 46.799V43.172H210.467V52.987ZM221.028 53.156C221.34 53.156 221.639 53.13 221.899 53.104V51.596H221.08C220.703 51.596 220.443 51.44 220.443 50.699V47.501H221.834V45.98H220.443V44.017H218.883V45.98H217.739V47.501H218.883V51.063C218.883 52.558 219.507 53.156 221.028 53.156ZM228.96 53.156C229.688 53.156 230.312 52.883 230.767 52.246V53H232.353V43.172H230.767V46.643C230.273 46.11 229.649 45.85 228.96 45.85C227.257 45.85 225.983 47.423 225.983 49.516C225.983 51.596 227.205 53.156 228.96 53.156ZM229.155 51.609C228.206 51.609 227.569 50.699 227.569 49.529C227.569 48.359 228.219 47.449 229.142 47.449C230.091 47.449 230.754 48.398 230.754 49.555C230.754 50.725 230.091 51.609 229.155 51.609ZM234.524 44.836C235.083 44.836 235.525 44.394 235.525 43.848C235.525 43.289 235.083 42.86 234.524 42.86C233.978 42.86 233.536 43.289 233.536 43.848C233.536 44.394 233.978 44.836 234.524 44.836ZM233.744 53H235.304V45.98H233.744V53ZM239.392 53.156C241.056 53.156 242.148 52.363 242.148 51.089C242.148 50.036 241.368 49.373 239.574 48.827C238.495 48.515 238.118 48.268 238.118 47.904C238.118 47.527 238.521 47.306 239.21 47.306C239.964 47.306 240.419 47.592 240.692 48.229L242.135 47.813C241.68 46.526 240.679 45.85 239.197 45.85C237.624 45.85 236.532 46.617 236.532 47.813C236.532 48.814 237.299 49.542 239.041 50.114C240.133 50.452 240.614 50.751 240.614 51.128C240.614 51.492 240.133 51.752 239.431 51.752C238.612 51.752 238.027 51.414 237.767 50.699L236.35 51.128C236.753 52.441 237.806 53.156 239.392 53.156ZM243.361 49.321H246.533V47.917H243.361V49.321ZM25.471 71.156C27.135 71.156 28.227 70.363 28.227 69.089C28.227 68.036 27.447 67.373 25.653 66.827C24.574 66.515 24.197 66.268 24.197 65.904C24.197 65.527 24.6 65.306 25.289 65.306C26.043 65.306 26.498 65.592 26.771 66.229L28.214 65.813C27.759 64.526 26.758 63.85 25.276 63.85C23.703 63.85 22.611 64.617 22.611 65.813C22.611 66.814 23.378 67.542 25.12 68.114C26.212 68.452 26.693 68.751 26.693 69.128C26.693 69.492 26.212 69.752 25.51 69.752C24.691 69.752 24.106 69.414 23.846 68.699L22.429 69.128C22.832 70.441 23.885 71.156 25.471 71.156ZM31.5335 71.156C32.3525 71.156 33.1585 70.896 33.7305 70.454C33.9645 70.883 34.4585 71.156 35.0175 71.156C35.2385 71.156 35.4725 71.117 35.6935 71.039V69.7C35.3035 69.83 35.0045 69.635 35.0045 69.245V66.411C35.0045 64.786 33.9775 63.863 32.3005 63.863C30.8055 63.863 29.7265 64.578 29.3365 65.826L30.7795 66.346C31.0005 65.709 31.5205 65.358 32.2875 65.358C32.9115 65.358 33.3405 65.605 33.3405 65.982C33.3405 66.515 32.4825 66.71 30.8575 67.152C29.7915 67.451 29.0635 68.14 29.0635 69.154C29.0635 70.35 30.0775 71.156 31.5335 71.156ZM31.6765 69.765C31.0525 69.765 30.6365 69.518 30.6365 69.063C30.6365 68.231 32.0015 68.413 33.4575 67.659V69.05C33.0415 69.466 32.3525 69.765 31.6765 69.765ZM39.3493 71.156C39.6613 71.156 39.9603 71.13 40.2203 71.104V69.596H39.4013C39.0243 69.596 38.7643 69.44 38.7643 68.699V65.501H40.1553V63.98H38.7643V62.017H37.2043V63.98H36.0603V65.501H37.2043V69.063C37.2043 70.558 37.8283 71.156 39.3493 71.156ZM42.1234 62.836C42.6824 62.836 43.1244 62.394 43.1244 61.848C43.1244 61.289 42.6824 60.86 42.1234 60.86C41.5774 60.86 41.1354 61.289 41.1354 61.848C41.1354 62.394 41.5774 62.836 42.1234 62.836ZM41.3434 71H42.9034V63.98H41.3434V71ZM46.9911 71.156C48.6551 71.156 49.7471 70.363 49.7471 69.089C49.7471 68.036 48.9671 67.373 47.1731 66.827C46.0941 66.515 45.7171 66.268 45.7171 65.904C45.7171 65.527 46.1201 65.306 46.8091 65.306C47.5631 65.306 48.0181 65.592 48.2911 66.229L49.7341 65.813C49.2791 64.526 48.2781 63.85 46.7961 63.85C45.2231 63.85 44.1311 64.617 44.1311 65.813C44.1311 66.814 44.8981 67.542 46.6401 68.114C47.7321 68.452 48.2131 68.751 48.2131 69.128C48.2131 69.492 47.7321 69.752 47.0301 69.752C46.2111 69.752 45.6261 69.414 45.3661 68.699L43.9491 69.128C44.3521 70.441 45.4051 71.156 46.9911 71.156ZM51.4805 71H53.0275V65.618H54.3405V64.11H53.0275V63.304C53.0275 62.797 53.1705 62.563 53.7945 62.563C53.9765 62.563 54.1845 62.589 54.4055 62.628V61.172C54.0805 61.094 53.7295 61.055 53.4045 61.055C52.1045 61.055 51.4805 61.653 51.4805 62.81V64.11H50.3885V65.618H51.4805V71ZM57.437 71.156C58.256 71.156 59.062 70.896 59.634 70.454C59.868 70.883 60.362 71.156 60.921 71.156C61.142 71.156 61.376 71.117 61.597 71.039V69.7C61.207 69.83 60.908 69.635 60.908 69.245V66.411C60.908 64.786 59.881 63.863 58.204 63.863C56.709 63.863 55.63 64.578 55.24 65.826L56.683 66.346C56.904 65.709 57.424 65.358 58.191 65.358C58.815 65.358 59.244 65.605 59.244 65.982C59.244 66.515 58.386 66.71 56.761 67.152C55.695 67.451 54.967 68.14 54.967 69.154C54.967 70.35 55.981 71.156 57.437 71.156ZM57.58 69.765C56.956 69.765 56.54 69.518 56.54 69.063C56.54 68.231 57.905 68.413 59.361 67.659V69.05C58.945 69.466 58.256 69.765 57.58 69.765ZM65.0968 71.156C66.4878 71.156 67.5798 70.337 67.9958 68.686L66.4878 68.309C66.2798 69.102 65.7728 69.609 65.0838 69.609C64.1608 69.609 63.4848 68.673 63.4848 67.477C63.4848 66.307 64.1218 65.41 65.0968 65.41C65.6688 65.41 66.1498 65.722 66.4358 66.45L67.9568 66.06C67.4888 64.682 66.4098 63.863 65.0448 63.863C63.1988 63.863 61.8988 65.371 61.8988 67.477C61.8988 69.57 63.1078 71.156 65.0968 71.156ZM71.8706 71.156C72.1826 71.156 72.4816 71.13 72.7416 71.104V69.596H71.9226C71.5456 69.596 71.2856 69.44 71.2856 68.699V65.501H72.6766V63.98H71.2856V62.017H69.7256V63.98H68.5816V65.501H69.7256V69.063C69.7256 70.558 70.3496 71.156 71.8706 71.156ZM74.6447 62.836C75.2037 62.836 75.6457 62.394 75.6457 61.848C75.6457 61.289 75.2037 60.86 74.6447 60.86C74.0987 60.86 73.6567 61.289 73.6567 61.848C73.6567 62.394 74.0987 62.836 74.6447 62.836ZM73.8647 71H75.4247V63.98H73.8647V71ZM79.9934 71.156C82.0214 71.156 83.5814 69.609 83.5814 67.516C83.5814 65.423 82.0214 63.863 79.9934 63.863C77.9654 63.863 76.4054 65.423 76.4054 67.516C76.4054 69.609 77.9654 71.156 79.9934 71.156ZM79.9934 69.635C78.9014 69.635 78.0174 68.699 78.0174 67.516C78.0174 66.333 78.9014 65.41 79.9934 65.41C81.0854 65.41 81.9694 66.333 81.9694 67.516C81.9694 68.699 81.0854 69.635 79.9934 69.635ZM84.3663 70.987H85.9393V66.918C86.2383 65.943 87.0053 65.41 87.8373 65.41C88.5913 65.41 89.1373 65.878 89.1373 66.879V70.987H90.6973V66.554C90.6973 64.838 89.6313 63.863 88.1493 63.863C87.3433 63.863 86.5893 64.136 85.9393 64.799V63.98H84.3663V70.987ZM96.3679 62.836C96.9269 62.836 97.3689 62.394 97.3689 61.848C97.3689 61.289 96.9269 60.86 96.3679 60.86C95.8219 60.86 95.3799 61.289 95.3799 61.848C95.3799 62.394 95.8219 62.836 96.3679 62.836ZM95.5879 71H97.1479V63.98H95.5879V71ZM98.5576 70.987H100.131V66.918C100.43 65.943 101.197 65.41 102.029 65.41C102.783 65.41 103.329 65.878 103.329 66.879V70.987H104.889V66.554C104.889 64.838 103.823 63.863 102.341 63.863C101.535 63.863 100.781 64.136 100.131 64.799V63.98H98.5576V70.987ZM112.6 71.156C112.912 71.156 113.211 71.13 113.471 71.104V69.596H112.652C112.275 69.596 112.015 69.44 112.015 68.699V65.501H113.406V63.98H112.015V62.017H110.455V63.98H109.311V65.501H110.455V69.063C110.455 70.558 111.079 71.156 112.6 71.156ZM114.373 70.987H115.946V66.918C116.245 65.943 117.012 65.423 117.844 65.423C118.598 65.423 119.144 65.878 119.144 66.892V70.987H120.704V66.567C120.704 64.838 119.638 63.863 118.156 63.863C117.35 63.863 116.609 64.149 115.946 64.799V61.172H114.373V70.987ZM124.909 71.156C126.17 71.156 127.158 70.571 127.847 69.336L126.612 68.595C126.261 69.271 125.65 69.622 124.922 69.622C123.96 69.622 123.323 68.972 123.18 68.023H127.951V67.49C127.951 65.306 126.729 63.863 124.831 63.863C122.881 63.863 121.581 65.345 121.581 67.49C121.581 69.635 122.881 71.156 124.909 71.156ZM123.245 66.697C123.414 65.943 124.012 65.384 124.844 65.384C125.65 65.384 126.222 65.917 126.313 66.697H123.245ZM135.326 71.156C135.638 71.156 135.937 71.13 136.197 71.104V69.596H135.378C135.001 69.596 134.741 69.44 134.741 68.699V65.501H136.132V63.98H134.741V62.017H133.181V63.98H132.037V65.501H133.181V69.063C133.181 70.558 133.805 71.156 135.326 71.156ZM140.284 71.156C142.312 71.156 143.872 69.609 143.872 67.516C143.872 65.423 142.312 63.863 140.284 63.863C138.256 63.863 136.696 65.423 136.696 67.516C136.696 69.609 138.256 71.156 140.284 71.156ZM140.284 69.635C139.192 69.635 138.308 68.699 138.308 67.516C138.308 66.333 139.192 65.41 140.284 65.41C141.376 65.41 142.26 66.333 142.26 67.516C142.26 68.699 141.376 69.635 140.284 69.635ZM147.673 71.156C147.985 71.156 148.284 71.13 148.544 71.104V69.596H147.725C147.348 69.596 147.088 69.44 147.088 68.699V65.501H148.479V63.98H147.088V62.017H145.528V63.98H144.384V65.501H145.528V69.063C145.528 70.558 146.152 71.156 147.673 71.156ZM151.747 71.156C152.566 71.156 153.372 70.896 153.944 70.454C154.178 70.883 154.672 71.156 155.231 71.156C155.452 71.156 155.686 71.117 155.907 71.039V69.7C155.517 69.83 155.218 69.635 155.218 69.245V66.411C155.218 64.786 154.191 63.863 152.514 63.863C151.019 63.863 149.94 64.578 149.55 65.826L150.993 66.346C151.214 65.709 151.734 65.358 152.501 65.358C153.125 65.358 153.554 65.605 153.554 65.982C153.554 66.515 152.696 66.71 151.071 67.152C150.005 67.451 149.277 68.14 149.277 69.154C149.277 70.35 150.291 71.156 151.747 71.156ZM151.89 69.765C151.266 69.765 150.85 69.518 150.85 69.063C150.85 68.231 152.215 68.413 153.671 67.659V69.05C153.255 69.466 152.566 69.765 151.89 69.765ZM156.612 71H158.172V61.172H156.612V71ZM162.94 71H164.513V66.905C164.734 66.008 165.475 65.384 166.19 65.384C166.84 65.384 167.269 65.93 167.269 66.931V71H168.829V66.892C169.05 66.008 169.791 65.384 170.519 65.384C171.195 65.384 171.598 65.93 171.598 66.905V71H173.158V66.333C173.158 64.851 172.131 63.863 170.662 63.863C169.713 63.863 168.933 64.292 168.309 65.111C167.854 64.279 167.165 63.863 166.385 63.863C165.722 63.863 165.033 64.162 164.513 64.786V63.98H162.94V71ZM177.567 71.156C179.595 71.156 181.155 69.609 181.155 67.516C181.155 65.423 179.595 63.863 177.567 63.863C175.539 63.863 173.979 65.423 173.979 67.516C173.979 69.609 175.539 71.156 177.567 71.156ZM177.567 69.635C176.475 69.635 175.591 68.699 175.591 67.516C175.591 66.333 176.475 65.41 177.567 65.41C178.659 65.41 179.543 66.333 179.543 67.516C179.543 68.699 178.659 69.635 177.567 69.635ZM181.939 70.987H183.512V66.918C183.811 65.943 184.578 65.41 185.41 65.41C186.164 65.41 186.71 65.878 186.71 66.879V70.987H188.27V66.554C188.27 64.838 187.204 63.863 185.722 63.863C184.916 63.863 184.162 64.136 183.512 64.799V63.98H181.939V70.987ZM192.475 71.156C192.787 71.156 193.086 71.13 193.346 71.104V69.596H192.527C192.15 69.596 191.89 69.44 191.89 68.699V65.501H193.281V63.98H191.89V62.017H190.33V63.98H189.186V65.501H190.33V69.063C190.33 70.558 190.954 71.156 192.475 71.156ZM194.248 70.987H195.821V66.918C196.12 65.943 196.887 65.423 197.719 65.423C198.473 65.423 199.019 65.878 199.019 66.892V70.987H200.579V66.567C200.579 64.838 199.513 63.863 198.031 63.863C197.225 63.863 196.484 64.149 195.821 64.799V61.172H194.248V70.987ZM201.858 71H203.418V61.172H201.858V71ZM204.353 74.029C206.212 74.055 206.823 73.678 207.395 72.144L210.411 63.98H208.773L207.291 68.088L205.731 63.98H204.08L206.485 70.298L206.004 71.546C205.744 72.222 205.354 72.43 204.353 72.456V74.029ZM216.657 71H217.866L220.596 63.98H218.971L217.268 68.491L215.565 63.98H213.914L216.657 71ZM222.168 62.836C222.727 62.836 223.169 62.394 223.169 61.848C223.169 61.289 222.727 60.86 222.168 60.86C221.622 60.86 221.18 61.289 221.18 61.848C221.18 62.394 221.622 62.836 222.168 62.836ZM221.388 71H222.948V63.98H221.388V71ZM227.347 71.156C228.608 71.156 229.596 70.571 230.285 69.336L229.05 68.595C228.699 69.271 228.088 69.622 227.36 69.622C226.398 69.622 225.761 68.972 225.618 68.023H230.389V67.49C230.389 65.306 229.167 63.863 227.269 63.863C225.319 63.863 224.019 65.345 224.019 67.49C224.019 69.635 225.319 71.156 227.347 71.156ZM225.683 66.697C225.852 65.943 226.45 65.384 227.282 65.384C228.088 65.384 228.66 65.917 228.751 66.697H225.683ZM232.958 71H234.219L235.727 66.229L237.183 71H238.444L240.693 63.98H239.068L237.807 68.348L236.494 63.98H234.895L233.582 68.348L232.321 63.98H230.709L232.958 71ZM244.029 71.156C245.693 71.156 246.785 70.363 246.785 69.089C246.785 68.036 246.005 67.373 244.211 66.827C243.132 66.515 242.755 66.268 242.755 65.904C242.755 65.527 243.158 65.306 243.847 65.306C244.601 65.306 245.056 65.592 245.329 66.229L246.772 65.813C246.317 64.526 245.316 63.85 243.834 63.85C242.261 63.85 241.169 64.617 241.169 65.813C241.169 66.814 241.936 67.542 243.678 68.114C244.77 68.452 245.251 68.751 245.251 69.128C245.251 69.492 244.77 69.752 244.068 69.752C243.249 69.752 242.664 69.414 242.404 68.699L240.987 69.128C241.39 70.441 242.443 71.156 244.029 71.156ZM249.363 71.156C249.961 71.156 250.442 70.675 250.442 70.077C250.442 69.479 249.961 68.998 249.363 68.998C248.765 68.998 248.284 69.479 248.284 70.077C248.284 70.675 248.765 71.156 249.363 71.156ZM22.819 89H26.901C28.955 89 30.385 87.817 30.385 86.101C30.385 85.022 29.839 84.177 28.864 83.826C29.592 83.41 29.969 82.682 29.969 81.759C29.969 80.134 28.812 79.224 26.784 79.224H22.819V89ZM24.379 83.098V80.771H26.628C27.772 80.771 28.422 81.161 28.422 81.889C28.422 82.656 27.694 83.098 26.485 83.098H24.379ZM24.379 87.44V84.619H26.81C28.084 84.619 28.786 85.113 28.786 86.049C28.786 86.972 28.11 87.44 26.875 87.44H24.379ZM32.3409 80.836C32.8999 80.836 33.3419 80.394 33.3419 79.848C33.3419 79.289 32.8999 78.86 32.3409 78.86C31.7949 78.86 31.3529 79.289 31.3529 79.848C31.3529 80.394 31.7949 80.836 32.3409 80.836ZM31.5609 89H33.1209V81.98H31.5609V89ZM34.5306 88.987H36.1036V84.918C36.4026 83.943 37.1696 83.41 38.0016 83.41C38.7556 83.41 39.3016 83.878 39.3016 84.879V88.987H40.8616V84.554C40.8616 82.838 39.7956 81.863 38.3136 81.863C37.5076 81.863 36.7536 82.136 36.1036 82.799V81.98H34.5306V88.987ZM44.8838 92.029C46.6778 92.029 48.0298 90.911 48.0298 88.909V81.98H46.4438V82.695C45.9498 82.045 45.3128 81.863 44.7018 81.863C42.9468 81.863 41.7118 83.345 41.7118 85.321C41.7118 87.31 42.9728 88.792 44.6888 88.792C45.3648 88.792 45.9758 88.545 46.4698 88.012V88.935C46.4698 89.897 45.7938 90.495 44.9228 90.495C44.3508 90.495 43.7398 90.222 43.3888 89.494L41.9458 90.105C42.5178 91.444 43.5838 92.029 44.8838 92.029ZM44.8838 87.206C43.9868 87.206 43.2978 86.374 43.2978 85.295C43.2978 84.229 43.9738 83.41 44.8838 83.41C45.7808 83.41 46.4438 84.216 46.4438 85.308C46.4438 86.413 45.7548 87.206 44.8838 87.206ZM52.6949 88.987H54.2679V84.918C54.5669 83.943 55.3339 83.423 56.1659 83.423C56.9199 83.423 57.4659 83.878 57.4659 84.892V88.987H59.0259V84.567C59.0259 82.838 57.9599 81.863 56.4779 81.863C55.6719 81.863 54.9309 82.149 54.2679 82.799V79.172H52.6949V88.987ZM62.5151 89.156C63.3341 89.156 64.1401 88.896 64.7121 88.454C64.9461 88.883 65.4401 89.156 65.9991 89.156C66.2201 89.156 66.4541 89.117 66.6751 89.039V87.7C66.2851 87.83 65.9861 87.635 65.9861 87.245V84.411C65.9861 82.786 64.9591 81.863 63.2821 81.863C61.7871 81.863 60.7081 82.578 60.3181 83.826L61.7611 84.346C61.9821 83.709 62.5021 83.358 63.2691 83.358C63.8931 83.358 64.3221 83.605 64.3221 83.982C64.3221 84.515 63.4641 84.71 61.8391 85.152C60.7731 85.451 60.0451 86.14 60.0451 87.154C60.0451 88.35 61.0591 89.156 62.5151 89.156ZM62.6581 87.765C62.0341 87.765 61.6181 87.518 61.6181 87.063C61.6181 86.231 62.9831 86.413 64.4391 85.659V87.05C64.0231 87.466 63.3341 87.765 62.6581 87.765ZM69.941 89.156C70.669 89.156 71.293 88.883 71.748 88.246V89H73.334V79.172H71.748V82.643C71.254 82.11 70.63 81.85 69.941 81.85C68.238 81.85 66.964 83.423 66.964 85.516C66.964 87.596 68.186 89.156 69.941 89.156ZM70.136 87.609C69.187 87.609 68.55 86.699 68.55 85.529C68.55 84.359 69.2 83.449 70.123 83.449C71.072 83.449 71.735 84.398 71.735 85.555C71.735 86.725 71.072 87.609 70.136 87.609ZM80.3119 89.156C81.1309 89.156 81.9369 88.896 82.5089 88.454C82.7429 88.883 83.2369 89.156 83.7959 89.156C84.0169 89.156 84.2509 89.117 84.4719 89.039V87.7C84.0819 87.83 83.7829 87.635 83.7829 87.245V84.411C83.7829 82.786 82.7559 81.863 81.0789 81.863C79.5839 81.863 78.5049 82.578 78.1149 83.826L79.5579 84.346C79.7789 83.709 80.2989 83.358 81.0659 83.358C81.6899 83.358 82.1189 83.605 82.1189 83.982C82.1189 84.515 81.2609 84.71 79.6359 85.152C78.5699 85.451 77.8419 86.14 77.8419 87.154C77.8419 88.35 78.8559 89.156 80.3119 89.156ZM80.4549 87.765C79.8309 87.765 79.4149 87.518 79.4149 87.063C79.4149 86.231 80.7799 86.413 82.2359 85.659V87.05C81.8199 87.466 81.1309 87.765 80.4549 87.765ZM91.9992 89.156C93.7672 89.156 94.9892 87.596 94.9892 85.503C94.9892 83.41 93.7282 81.85 92.0122 81.85C91.3232 81.85 90.6862 82.097 90.2052 82.643V79.172H88.6192V89H90.2052V88.246C90.6602 88.896 91.2842 89.156 91.9992 89.156ZM91.8042 87.609C90.8812 87.609 90.2182 86.725 90.2182 85.555C90.2182 84.385 90.8812 83.449 91.8172 83.449C92.7402 83.449 93.4032 84.359 93.4032 85.529C93.4032 86.699 92.7532 87.609 91.8042 87.609ZM95.8464 89H97.4064V85.776C97.4064 84.385 98.1994 83.683 99.7464 83.722V81.928C98.6804 81.863 97.9784 82.162 97.4064 82.916V81.98H95.8464V89ZM103.503 89.156C105.531 89.156 107.091 87.609 107.091 85.516C107.091 83.423 105.531 81.863 103.503 81.863C101.475 81.863 99.9151 83.423 99.9151 85.516C99.9151 87.609 101.475 89.156 103.503 89.156ZM103.503 87.635C102.411 87.635 101.527 86.699 101.527 85.516C101.527 84.333 102.411 83.41 103.503 83.41C104.595 83.41 105.479 84.333 105.479 85.516C105.479 86.699 104.595 87.635 103.503 87.635ZM110.151 89.156C110.97 89.156 111.776 88.896 112.348 88.454C112.582 88.883 113.076 89.156 113.635 89.156C113.856 89.156 114.09 89.117 114.311 89.039V87.7C113.921 87.83 113.622 87.635 113.622 87.245V84.411C113.622 82.786 112.595 81.863 110.918 81.863C109.423 81.863 108.344 82.578 107.954 83.826L109.397 84.346C109.618 83.709 110.138 83.358 110.905 83.358C111.529 83.358 111.958 83.605 111.958 83.982C111.958 84.515 111.1 84.71 109.475 85.152C108.409 85.451 107.681 86.14 107.681 87.154C107.681 88.35 108.695 89.156 110.151 89.156ZM110.294 87.765C109.67 87.765 109.254 87.518 109.254 87.063C109.254 86.231 110.619 86.413 112.075 85.659V87.05C111.659 87.466 110.97 87.765 110.294 87.765ZM117.577 89.156C118.305 89.156 118.929 88.883 119.384 88.246V89H120.97V79.172H119.384V82.643C118.89 82.11 118.266 81.85 117.577 81.85C115.874 81.85 114.6 83.423 114.6 85.516C114.6 87.596 115.822 89.156 117.577 89.156ZM117.772 87.609C116.823 87.609 116.186 86.699 116.186 85.529C116.186 84.359 116.836 83.449 117.759 83.449C118.708 83.449 119.371 84.398 119.371 85.555C119.371 86.725 118.708 87.609 117.772 87.609ZM125.155 89.156C126.416 89.156 127.404 88.571 128.093 87.336L126.858 86.595C126.507 87.271 125.896 87.622 125.168 87.622C124.206 87.622 123.569 86.972 123.426 86.023H128.197V85.49C128.197 83.306 126.975 81.863 125.077 81.863C123.127 81.863 121.827 83.345 121.827 85.49C121.827 87.635 123.127 89.156 125.155 89.156ZM123.491 84.697C123.66 83.943 124.258 83.384 125.09 83.384C125.896 83.384 126.468 83.917 126.559 84.697H123.491ZM129.05 89H130.61V85.776C130.61 84.385 131.403 83.683 132.95 83.722V81.928C131.884 81.863 131.182 82.162 130.61 82.916V81.98H129.05V89ZM139.33 89.156C140.149 89.156 140.955 88.896 141.527 88.454C141.761 88.883 142.255 89.156 142.814 89.156C143.035 89.156 143.269 89.117 143.49 89.039V87.7C143.1 87.83 142.801 87.635 142.801 87.245V84.411C142.801 82.786 141.774 81.863 140.097 81.863C138.602 81.863 137.523 82.578 137.133 83.826L138.576 84.346C138.797 83.709 139.317 83.358 140.084 83.358C140.708 83.358 141.137 83.605 141.137 83.982C141.137 84.515 140.279 84.71 138.654 85.152C137.588 85.451 136.86 86.14 136.86 87.154C136.86 88.35 137.874 89.156 139.33 89.156ZM139.473 87.765C138.849 87.765 138.433 87.518 138.433 87.063C138.433 86.231 139.798 86.413 141.254 85.659V87.05C140.838 87.466 140.149 87.765 139.473 87.765ZM146.665 89.156C147.484 89.156 148.238 88.87 148.888 88.142V89H150.461V81.993H148.888V85.984C148.576 86.998 147.757 87.583 146.964 87.583C146.262 87.583 145.69 87.128 145.69 86.166V81.993H144.13V86.348C144.13 88.129 145.092 89.156 146.665 89.156ZM154.275 89.156C155.003 89.156 155.627 88.883 156.082 88.246V89H157.668V79.172H156.082V82.643C155.588 82.11 154.964 81.85 154.275 81.85C152.572 81.85 151.298 83.423 151.298 85.516C151.298 87.596 152.52 89.156 154.275 89.156ZM154.47 87.609C153.521 87.609 152.884 86.699 152.884 85.529C152.884 84.359 153.534 83.449 154.457 83.449C155.406 83.449 156.069 84.398 156.069 85.555C156.069 86.725 155.406 87.609 154.47 87.609ZM159.838 80.836C160.397 80.836 160.839 80.394 160.839 79.848C160.839 79.289 160.397 78.86 159.838 78.86C159.292 78.86 158.85 79.289 158.85 79.848C158.85 80.394 159.292 80.836 159.838 80.836ZM159.058 89H160.618V81.98H159.058V89ZM165.018 89.156C166.279 89.156 167.267 88.571 167.956 87.336L166.721 86.595C166.37 87.271 165.759 87.622 165.031 87.622C164.069 87.622 163.432 86.972 163.289 86.023H168.06V85.49C168.06 83.306 166.838 81.863 164.94 81.863C162.99 81.863 161.69 83.345 161.69 85.49C161.69 87.635 162.99 89.156 165.018 89.156ZM163.354 84.697C163.523 83.943 164.121 83.384 164.953 83.384C165.759 83.384 166.331 83.917 166.422 84.697H163.354ZM168.912 88.987H170.485V84.918C170.784 83.943 171.551 83.41 172.383 83.41C173.137 83.41 173.683 83.878 173.683 84.879V88.987H175.243V84.554C175.243 82.838 174.177 81.863 172.695 81.863C171.889 81.863 171.135 82.136 170.485 82.799V81.98H168.912V88.987ZM179.292 89.156C180.683 89.156 181.775 88.337 182.191 86.686L180.683 86.309C180.475 87.102 179.968 87.609 179.279 87.609C178.356 87.609 177.68 86.673 177.68 85.477C177.68 84.307 178.317 83.41 179.292 83.41C179.864 83.41 180.345 83.722 180.631 84.45L182.152 84.06C181.684 82.682 180.605 81.863 179.24 81.863C177.394 81.863 176.094 83.371 176.094 85.477C176.094 87.57 177.303 89.156 179.292 89.156ZM186.039 89.156C187.3 89.156 188.288 88.571 188.977 87.336L187.742 86.595C187.391 87.271 186.78 87.622 186.052 87.622C185.09 87.622 184.453 86.972 184.31 86.023H189.081V85.49C189.081 83.306 187.859 81.863 185.961 81.863C184.011 81.863 182.711 83.345 182.711 85.49C182.711 87.635 184.011 89.156 186.039 89.156ZM184.375 84.697C184.544 83.943 185.142 83.384 185.974 83.384C186.78 83.384 187.352 83.917 187.443 84.697H184.375ZM195.716 89.156C196.535 89.156 197.341 88.896 197.913 88.454C198.147 88.883 198.641 89.156 199.2 89.156C199.421 89.156 199.655 89.117 199.876 89.039V87.7C199.486 87.83 199.187 87.635 199.187 87.245V84.411C199.187 82.786 198.16 81.863 196.483 81.863C194.988 81.863 193.909 82.578 193.519 83.826L194.962 84.346C195.183 83.709 195.703 83.358 196.47 83.358C197.094 83.358 197.523 83.605 197.523 83.982C197.523 84.515 196.665 84.71 195.04 85.152C193.974 85.451 193.246 86.14 193.246 87.154C193.246 88.35 194.26 89.156 195.716 89.156ZM195.859 87.765C195.235 87.765 194.819 87.518 194.819 87.063C194.819 86.231 196.184 86.413 197.64 85.659V87.05C197.224 87.466 196.535 87.765 195.859 87.765ZM200.516 88.987H202.089V84.918C202.388 83.943 203.155 83.41 203.987 83.41C204.741 83.41 205.287 83.878 205.287 84.879V88.987H206.847V84.554C206.847 82.838 205.781 81.863 204.299 81.863C203.493 81.863 202.739 82.136 202.089 82.799V81.98H200.516V88.987ZM210.661 89.156C211.389 89.156 212.013 88.883 212.468 88.246V89H214.054V79.172H212.468V82.643C211.974 82.11 211.35 81.85 210.661 81.85C208.958 81.85 207.684 83.423 207.684 85.516C207.684 87.596 208.906 89.156 210.661 89.156ZM210.856 87.609C209.907 87.609 209.27 86.699 209.27 85.529C209.27 84.359 209.92 83.449 210.843 83.449C211.792 83.449 212.455 84.398 212.455 85.555C212.455 86.725 211.792 87.609 210.856 87.609ZM221.773 89.156C222.085 89.156 222.384 89.13 222.644 89.104V87.596H221.825C221.448 87.596 221.188 87.44 221.188 86.699V83.501H222.579V81.98H221.188V80.017H219.628V81.98H218.484V83.501H219.628V87.063C219.628 88.558 220.252 89.156 221.773 89.156ZM223.546 88.987H225.119V84.918C225.418 83.943 226.185 83.423 227.017 83.423C227.771 83.423 228.317 83.878 228.317 84.892V88.987H229.877V84.567C229.877 82.838 228.811 81.863 227.329 81.863C226.523 81.863 225.782 82.149 225.119 82.799V79.172H223.546V88.987ZM234.082 89.156C235.343 89.156 236.331 88.571 237.02 87.336L235.785 86.595C235.434 87.271 234.823 87.622 234.095 87.622C233.133 87.622 232.496 86.972 232.353 86.023H237.124V85.49C237.124 83.306 235.902 81.863 234.004 81.863C232.054 81.863 230.754 83.345 230.754 85.49C230.754 87.635 232.054 89.156 234.082 89.156ZM232.418 84.697C232.587 83.943 233.185 83.384 234.017 83.384C234.823 83.384 235.395 83.917 235.486 84.697H232.418ZM23.495 107H25.042V101.618H26.355V100.11H25.042V99.304C25.042 98.797 25.185 98.563 25.809 98.563C25.991 98.563 26.199 98.589 26.42 98.628V97.172C26.095 97.094 25.744 97.055 25.419 97.055C24.119 97.055 23.495 97.653 23.495 98.81V100.11H22.403V101.618H23.495V107ZM30.1664 107.156C31.4274 107.156 32.4154 106.571 33.1044 105.336L31.8694 104.595C31.5184 105.271 30.9074 105.622 30.1794 105.622C29.2174 105.622 28.5804 104.972 28.4374 104.023H33.2084V103.49C33.2084 101.306 31.9864 99.863 30.0884 99.863C28.1384 99.863 26.8384 101.345 26.8384 103.49C26.8384 105.635 28.1384 107.156 30.1664 107.156ZM28.5024 102.697C28.6714 101.943 29.2694 101.384 30.1014 101.384C30.9074 101.384 31.4794 101.917 31.5704 102.697H28.5024ZM37.0509 107.156C38.3119 107.156 39.2999 106.571 39.9889 105.336L38.7539 104.595C38.4029 105.271 37.7919 105.622 37.0639 105.622C36.1019 105.622 35.4649 104.972 35.3219 104.023H40.0929V103.49C40.0929 101.306 38.8709 99.863 36.9729 99.863C35.0229 99.863 33.7229 101.345 33.7229 103.49C33.7229 105.635 35.0229 107.156 37.0509 107.156ZM35.3869 102.697C35.5559 101.943 36.1539 101.384 36.9859 101.384C37.7919 101.384 38.3639 101.917 38.4549 102.697H35.3869ZM43.5713 107.156C44.2993 107.156 44.9233 106.883 45.3783 106.246V107H46.9643V97.172H45.3783V100.643C44.8843 100.11 44.2603 99.85 43.5713 99.85C41.8683 99.85 40.5943 101.423 40.5943 103.516C40.5943 105.596 41.8163 107.156 43.5713 107.156ZM43.7663 105.609C42.8173 105.609 42.1803 104.699 42.1803 103.529C42.1803 102.359 42.8303 101.449 43.7533 101.449C44.7023 101.449 45.3653 102.398 45.3653 103.555C45.3653 104.725 44.7023 105.609 43.7663 105.609ZM54.5272 107.156C55.9182 107.156 57.0102 106.337 57.4262 104.686L55.9182 104.309C55.7102 105.102 55.2032 105.609 54.5142 105.609C53.5912 105.609 52.9152 104.673 52.9152 103.477C52.9152 102.307 53.5522 101.41 54.5272 101.41C55.0992 101.41 55.5802 101.722 55.8662 102.45L57.3872 102.06C56.9192 100.682 55.8402 99.863 54.4752 99.863C52.6292 99.863 51.3292 101.371 51.3292 103.477C51.3292 105.57 52.5382 107.156 54.5272 107.156ZM61.444 107.156C63.472 107.156 65.032 105.609 65.032 103.516C65.032 101.423 63.472 99.863 61.444 99.863C59.416 99.863 57.856 101.423 57.856 103.516C57.856 105.609 59.416 107.156 61.444 107.156ZM61.444 105.635C60.352 105.635 59.468 104.699 59.468 103.516C59.468 102.333 60.352 101.41 61.444 101.41C62.536 101.41 63.42 102.333 63.42 103.516C63.42 104.699 62.536 105.635 61.444 105.635ZM68.3519 107.156C69.1709 107.156 69.9249 106.87 70.5749 106.142V107H72.1479V99.993H70.5749V103.984C70.2629 104.998 69.4439 105.583 68.6509 105.583C67.9489 105.583 67.3769 105.128 67.3769 104.166V99.993H65.8169V104.348C65.8169 106.129 66.7789 107.156 68.3519 107.156ZM73.4011 107H74.9611V97.172H73.4011V107ZM78.8475 107.156C79.5755 107.156 80.1995 106.883 80.6545 106.246V107H82.2405V97.172H80.6545V100.643C80.1605 100.11 79.5365 99.85 78.8475 99.85C77.1445 99.85 75.8705 101.423 75.8705 103.516C75.8705 105.596 77.0925 107.156 78.8475 107.156ZM79.0425 105.609C78.0935 105.609 77.4565 104.699 77.4565 103.529C77.4565 102.359 78.1065 101.449 79.0295 101.449C79.9785 101.449 80.6415 102.398 80.6415 103.555C80.6415 104.725 79.9785 105.609 79.0425 105.609ZM83.878 100.565C84.84 99.954 85.308 99.135 85.308 98.147C85.308 97.12 84.801 96.548 84.138 96.548C83.514 96.548 83.033 97.029 83.033 97.64C83.033 98.303 83.618 98.797 84.307 98.68C84.19 99.148 83.904 99.473 83.306 99.837L83.878 100.565ZM88.3775 107H89.5865L92.3165 99.98H90.6915L88.9885 104.491L87.2855 99.98H85.6345L88.3775 107ZM95.9038 107.156C97.1648 107.156 98.1528 106.571 98.8418 105.336L97.6068 104.595C97.2558 105.271 96.6448 105.622 95.9168 105.622C94.9548 105.622 94.3178 104.972 94.1748 104.023H98.9458V103.49C98.9458 101.306 97.7238 99.863 95.8258 99.863C93.8758 99.863 92.5758 101.345 92.5758 103.49C92.5758 105.635 93.8758 107.156 95.9038 107.156ZM94.2398 102.697C94.4088 101.943 95.0068 101.384 95.8388 101.384C96.6448 101.384 97.2168 101.917 97.3078 102.697H94.2398ZM104.008 107H105.555V101.618H106.868V100.11H105.555V99.304C105.555 98.797 105.698 98.563 106.322 98.563C106.504 98.563 106.712 98.589 106.933 98.628V97.172C106.608 97.094 106.257 97.055 105.932 97.055C104.632 97.055 104.008 97.653 104.008 98.81V100.11H102.916V101.618H104.008V107ZM110.679 107.156C111.94 107.156 112.928 106.571 113.617 105.336L112.382 104.595C112.031 105.271 111.42 105.622 110.692 105.622C109.73 105.622 109.093 104.972 108.95 104.023H113.721V103.49C113.721 101.306 112.499 99.863 110.601 99.863C108.651 99.863 107.351 101.345 107.351 103.49C107.351 105.635 108.651 107.156 110.679 107.156ZM109.015 102.697C109.184 101.943 109.782 101.384 110.614 101.384C111.42 101.384 111.992 101.917 112.083 102.697H109.015ZM117.59 107.156C117.902 107.156 118.201 107.13 118.461 107.104V105.596H117.642C117.265 105.596 117.005 105.44 117.005 104.699V101.501H118.396V99.98H117.005V98.017H115.445V99.98H114.301V101.501H115.445V105.063C115.445 106.558 116.069 107.156 117.59 107.156ZM122.249 107.156C123.64 107.156 124.732 106.337 125.148 104.686L123.64 104.309C123.432 105.102 122.925 105.609 122.236 105.609C121.313 105.609 120.637 104.673 120.637 103.477C120.637 102.307 121.274 101.41 122.249 101.41C122.821 101.41 123.302 101.722 123.588 102.45L125.109 102.06C124.641 100.682 123.562 99.863 122.197 99.863C120.351 99.863 119.051 101.371 119.051 103.477C119.051 105.57 120.26 107.156 122.249 107.156ZM125.98 106.987H127.553V102.918C127.852 101.943 128.619 101.423 129.451 101.423C130.205 101.423 130.751 101.878 130.751 102.892V106.987H132.311V102.567C132.311 100.838 131.245 99.863 129.763 99.863C128.957 99.863 128.216 100.149 127.553 100.799V97.172H125.98V106.987ZM136.516 107.156C137.777 107.156 138.765 106.571 139.454 105.336L138.219 104.595C137.868 105.271 137.257 105.622 136.529 105.622C135.567 105.622 134.93 104.972 134.787 104.023H139.558V103.49C139.558 101.306 138.336 99.863 136.438 99.863C134.488 99.863 133.188 101.345 133.188 103.49C133.188 105.635 134.488 107.156 136.516 107.156ZM134.852 102.697C135.021 101.943 135.619 101.384 136.451 101.384C137.257 101.384 137.829 101.917 137.92 102.697H134.852ZM143.036 107.156C143.764 107.156 144.388 106.883 144.843 106.246V107H146.429V97.172H144.843V100.643C144.349 100.11 143.725 99.85 143.036 99.85C141.333 99.85 140.059 101.423 140.059 103.516C140.059 105.596 141.281 107.156 143.036 107.156ZM143.231 105.609C142.282 105.609 141.645 104.699 141.645 103.529C141.645 102.359 142.295 101.449 143.218 101.449C144.167 101.449 144.83 102.398 144.83 103.555C144.83 104.725 144.167 105.609 143.231 105.609ZM154.512 107.156C156.28 107.156 157.502 105.596 157.502 103.503C157.502 101.41 156.241 99.85 154.525 99.85C153.836 99.85 153.199 100.097 152.718 100.643V97.172H151.132V107H152.718V106.246C153.173 106.896 153.797 107.156 154.512 107.156ZM154.317 105.609C153.394 105.609 152.731 104.725 152.731 103.555C152.731 102.385 153.394 101.449 154.33 101.449C155.253 101.449 155.916 102.359 155.916 103.529C155.916 104.699 155.266 105.609 154.317 105.609ZM161.349 107.156C162.61 107.156 163.598 106.571 164.287 105.336L163.052 104.595C162.701 105.271 162.09 105.622 161.362 105.622C160.4 105.622 159.763 104.972 159.62 104.023H164.391V103.49C164.391 101.306 163.169 99.863 161.271 99.863C159.321 99.863 158.021 101.345 158.021 103.49C158.021 105.635 159.321 107.156 161.349 107.156ZM159.685 102.697C159.854 101.943 160.452 101.384 161.284 101.384C162.09 101.384 162.662 101.917 162.753 102.697H159.685ZM168.26 107.156C168.572 107.156 168.871 107.13 169.131 107.104V105.596H168.312C167.935 105.596 167.675 105.44 167.675 104.699V101.501H169.066V99.98H167.675V98.017H166.115V99.98H164.971V101.501H166.115V105.063C166.115 106.558 166.739 107.156 168.26 107.156ZM173.075 107.156C173.387 107.156 173.686 107.13 173.946 107.104V105.596H173.127C172.75 105.596 172.49 105.44 172.49 104.699V101.501H173.881V99.98H172.49V98.017H170.93V99.98H169.786V101.501H170.93V105.063C170.93 106.558 171.554 107.156 173.075 107.156ZM177.864 107.156C179.125 107.156 180.113 106.571 180.802 105.336L179.567 104.595C179.216 105.271 178.605 105.622 177.877 105.622C176.915 105.622 176.278 104.972 176.135 104.023H180.906V103.49C180.906 101.306 179.684 99.863 177.786 99.863C175.836 99.863 174.536 101.345 174.536 103.49C174.536 105.635 175.836 107.156 177.864 107.156ZM176.2 102.697C176.369 101.943 176.967 101.384 177.799 101.384C178.605 101.384 179.177 101.917 179.268 102.697H176.2ZM181.758 107H183.318V103.776C183.318 102.385 184.111 101.683 185.658 101.722V99.928C184.592 99.863 183.89 100.162 183.318 100.916V99.98H181.758V107ZM189.763 107H191.323V103.776C191.323 102.385 192.116 101.683 193.663 101.722V99.928C192.597 99.863 191.895 100.162 191.323 100.916V99.98H189.763V107ZM197.251 107.156C198.512 107.156 199.5 106.571 200.189 105.336L198.954 104.595C198.603 105.271 197.992 105.622 197.264 105.622C196.302 105.622 195.665 104.972 195.522 104.023H200.293V103.49C200.293 101.306 199.071 99.863 197.173 99.863C195.223 99.863 193.923 101.345 193.923 103.49C193.923 105.635 195.223 107.156 197.251 107.156ZM195.587 102.697C195.756 101.943 196.354 101.384 197.186 101.384C197.992 101.384 198.564 101.917 198.655 102.697H195.587ZM203.823 107.156C205.487 107.156 206.579 106.363 206.579 105.089C206.579 104.036 205.799 103.373 204.005 102.827C202.926 102.515 202.549 102.268 202.549 101.904C202.549 101.527 202.952 101.306 203.641 101.306C204.395 101.306 204.85 101.592 205.123 102.229L206.566 101.813C206.111 100.526 205.11 99.85 203.628 99.85C202.055 99.85 200.963 100.617 200.963 101.813C200.963 102.814 201.73 103.542 203.472 104.114C204.564 104.452 205.045 104.751 205.045 105.128C205.045 105.492 204.564 105.752 203.862 105.752C203.043 105.752 202.458 105.414 202.198 104.699L200.781 105.128C201.184 106.441 202.237 107.156 203.823 107.156ZM210.146 107.156C210.965 107.156 211.719 106.87 212.369 106.142V107H213.942V99.993H212.369V103.984C212.057 104.998 211.238 105.583 210.445 105.583C209.743 105.583 209.171 105.128 209.171 104.166V99.993H207.611V104.348C207.611 106.129 208.573 107.156 210.146 107.156ZM215.195 107H216.755V97.172H215.195V107ZM221.031 107.156C221.343 107.156 221.642 107.13 221.902 107.104V105.596H221.083C220.706 105.596 220.446 105.44 220.446 104.699V101.501H221.837V99.98H220.446V98.017H218.886V99.98H217.742V101.501H218.886V105.063C218.886 106.558 219.51 107.156 221.031 107.156ZM225.509 107.156C227.173 107.156 228.265 106.363 228.265 105.089C228.265 104.036 227.485 103.373 225.691 102.827C224.612 102.515 224.235 102.268 224.235 101.904C224.235 101.527 224.638 101.306 225.327 101.306C226.081 101.306 226.536 101.592 226.809 102.229L228.252 101.813C227.797 100.526 226.796 99.85 225.314 99.85C223.741 99.85 222.649 100.617 222.649 101.813C222.649 102.814 223.416 103.542 225.158 104.114C226.25 104.452 226.731 104.751 226.731 105.128C226.731 105.492 226.25 105.752 225.548 105.752C224.729 105.752 224.144 105.414 223.884 104.699L222.467 105.128C222.87 106.441 223.923 107.156 225.509 107.156ZM232.777 106.987H234.35V102.918C234.649 101.943 235.416 101.423 236.248 101.423C237.002 101.423 237.548 101.878 237.548 102.892V106.987H239.108V102.567C239.108 100.838 238.042 99.863 236.56 99.863C235.754 99.863 235.013 100.149 234.35 100.799V97.172H232.777V106.987ZM242.598 107.156C243.417 107.156 244.223 106.896 244.795 106.454C245.029 106.883 245.523 107.156 246.082 107.156C246.303 107.156 246.537 107.117 246.758 107.039V105.7C246.368 105.83 246.069 105.635 246.069 105.245V102.411C246.069 100.786 245.042 99.863 243.365 99.863C241.87 99.863 240.791 100.578 240.401 101.826L241.844 102.346C242.065 101.709 242.585 101.358 243.352 101.358C243.976 101.358 244.405 101.605 244.405 101.982C244.405 102.515 243.547 102.71 241.922 103.152C240.856 103.451 240.128 104.14 240.128 105.154C240.128 106.35 241.142 107.156 242.598 107.156ZM242.741 105.765C242.117 105.765 241.701 105.518 241.701 105.063C241.701 104.231 243.066 104.413 244.522 103.659V105.05C244.106 105.466 243.417 105.765 242.741 105.765ZM250.023 107.156C250.751 107.156 251.375 106.883 251.83 106.246V107H253.416V97.172H251.83V100.643C251.336 100.11 250.712 99.85 250.023 99.85C248.32 99.85 247.046 101.423 247.046 103.516C247.046 105.596 248.268 107.156 250.023 107.156ZM250.218 105.609C249.269 105.609 248.632 104.699 248.632 103.529C248.632 102.359 249.282 101.449 250.205 101.449C251.154 101.449 251.817 102.398 251.817 103.555C251.817 104.725 251.154 105.609 250.218 105.609ZM23.768 116.836C24.327 116.836 24.769 116.394 24.769 115.848C24.769 115.289 24.327 114.86 23.768 114.86C23.222 114.86 22.78 115.289 22.78 115.848C22.78 116.394 23.222 116.836 23.768 116.836ZM22.988 125H24.548V117.98H22.988V125ZM28.9737 125.156C29.2857 125.156 29.5847 125.13 29.8447 125.104V123.596H29.0257C28.6487 123.596 28.3887 123.44 28.3887 122.699V119.501H29.7797V117.98H28.3887V116.017H26.8287V117.98H25.6847V119.501H26.8287V123.063C26.8287 124.558 27.4527 125.156 28.9737 125.156ZM37.6602 125.156C39.4282 125.156 40.6502 123.596 40.6502 121.503C40.6502 119.41 39.3892 117.85 37.6732 117.85C36.9842 117.85 36.3472 118.097 35.8662 118.643V115.172H34.2802V125H35.8662V124.246C36.3212 124.896 36.9452 125.156 37.6602 125.156ZM37.4652 123.609C36.5422 123.609 35.8792 122.725 35.8792 121.555C35.8792 120.385 36.5422 119.449 37.4782 119.449C38.4012 119.449 39.0642 120.359 39.0642 121.529C39.0642 122.699 38.4142 123.609 37.4652 123.609ZM44.4974 125.156C45.7584 125.156 46.7464 124.571 47.4354 123.336L46.2004 122.595C45.8494 123.271 45.2384 123.622 44.5104 123.622C43.5484 123.622 42.9114 122.972 42.7684 122.023H47.5394V121.49C47.5394 119.306 46.3174 117.863 44.4194 117.863C42.4694 117.863 41.1694 119.345 41.1694 121.49C41.1694 123.635 42.4694 125.156 44.4974 125.156ZM42.8334 120.697C43.0024 119.943 43.6004 119.384 44.4324 119.384C45.2384 119.384 45.8104 119.917 45.9014 120.697H42.8334ZM51.3818 125.156C52.6428 125.156 53.6308 124.571 54.3198 123.336L53.0848 122.595C52.7338 123.271 52.1228 123.622 51.3948 123.622C50.4328 123.622 49.7958 122.972 49.6528 122.023H54.4238V121.49C54.4238 119.306 53.2018 117.863 51.3038 117.863C49.3538 117.863 48.0538 119.345 48.0538 121.49C48.0538 123.635 49.3538 125.156 51.3818 125.156ZM49.7178 120.697C49.8868 119.943 50.4848 119.384 51.3168 119.384C52.1228 119.384 52.6948 119.917 52.7858 120.697H49.7178ZM55.2762 124.987H56.8492V120.918C57.1482 119.943 57.9152 119.41 58.7472 119.41C59.5012 119.41 60.0472 119.878 60.0472 120.879V124.987H61.6072V120.554C61.6072 118.838 60.5412 117.863 59.0592 117.863C58.2532 117.863 57.4992 118.136 56.8492 118.799V117.98H55.2762V124.987ZM69.6829 125.156C71.4509 125.156 72.6729 123.596 72.6729 121.503C72.6729 119.41 71.4119 117.85 69.6959 117.85C69.0069 117.85 68.3699 118.097 67.8889 118.643V115.172H66.3029V125H67.8889V124.246C68.3439 124.896 68.9679 125.156 69.6829 125.156ZM69.4879 123.609C68.5649 123.609 67.9019 122.725 67.9019 121.555C67.9019 120.385 68.5649 119.449 69.5009 119.449C70.4239 119.449 71.0869 120.359 71.0869 121.529C71.0869 122.699 70.4369 123.609 69.4879 123.609ZM76.0651 125.156C76.8841 125.156 77.6381 124.87 78.2881 124.142V125H79.8611V117.993H78.2881V121.984C77.9761 122.998 77.1571 123.583 76.3641 123.583C75.6621 123.583 75.0901 123.128 75.0901 122.166V117.993H73.5301V122.348C73.5301 124.129 74.4921 125.156 76.0651 125.156ZM82.0242 116.836C82.5832 116.836 83.0252 116.394 83.0252 115.848C83.0252 115.289 82.5832 114.86 82.0242 114.86C81.4782 114.86 81.0362 115.289 81.0362 115.848C81.0362 116.394 81.4782 116.836 82.0242 116.836ZM81.2442 125H82.8042V117.98H81.2442V125ZM84.2789 125H85.8389V115.172H84.2789V125ZM90.1153 125.156C90.4273 125.156 90.7263 125.13 90.9863 125.104V123.596H90.1673C89.7903 123.596 89.5303 123.44 89.5303 122.699V119.501H90.9213V117.98H89.5303V116.017H87.9703V117.98H86.8263V119.501H87.9703V123.063C87.9703 124.558 88.5943 125.156 90.1153 125.156ZM98.5809 125.156C100.609 125.156 102.169 123.609 102.169 121.516C102.169 119.423 100.609 117.863 98.5809 117.863C96.5529 117.863 94.9929 119.423 94.9929 121.516C94.9929 123.609 96.5529 125.156 98.5809 125.156ZM98.5809 123.635C97.4889 123.635 96.6049 122.699 96.6049 121.516C96.6049 120.333 97.4889 119.41 98.5809 119.41C99.6729 119.41 100.557 120.333 100.557 121.516C100.557 122.699 99.6729 123.635 98.5809 123.635ZM102.954 124.987H104.527V120.918C104.826 119.943 105.593 119.41 106.425 119.41C107.179 119.41 107.725 119.878 107.725 120.879V124.987H109.285V120.554C109.285 118.838 108.219 117.863 106.737 117.863C105.931 117.863 105.177 118.136 104.527 118.799V117.98H102.954V124.987ZM114.006 125H118.088C120.142 125 121.572 123.817 121.572 122.101C121.572 121.022 121.026 120.177 120.051 119.826C120.779 119.41 121.156 118.682 121.156 117.759C121.156 116.134 119.999 115.224 117.971 115.224H114.006V125ZM115.566 119.098V116.771H117.815C118.959 116.771 119.609 117.161 119.609 117.889C119.609 118.656 118.881 119.098 117.672 119.098H115.566ZM115.566 123.44V120.619H117.997C119.271 120.619 119.973 121.113 119.973 122.049C119.973 122.972 119.297 123.44 118.062 123.44H115.566ZM123.528 116.836C124.087 116.836 124.529 116.394 124.529 115.848C124.529 115.289 124.087 114.86 123.528 114.86C122.982 114.86 122.54 115.289 122.54 115.848C122.54 116.394 122.982 116.836 123.528 116.836ZM122.748 125H124.308V117.98H122.748V125ZM125.718 124.987H127.291V120.918C127.59 119.943 128.357 119.41 129.189 119.41C129.943 119.41 130.489 119.878 130.489 120.879V124.987H132.049V120.554C132.049 118.838 130.983 117.863 129.501 117.863C128.695 117.863 127.941 118.136 127.291 118.799V117.98H125.718V124.987ZM136.071 128.029C137.865 128.029 139.217 126.911 139.217 124.909V117.98H137.631V118.695C137.137 118.045 136.5 117.863 135.889 117.863C134.134 117.863 132.899 119.345 132.899 121.321C132.899 123.31 134.16 124.792 135.876 124.792C136.552 124.792 137.163 124.545 137.657 124.012V124.935C137.657 125.897 136.981 126.495 136.11 126.495C135.538 126.495 134.927 126.222 134.576 125.494L133.133 126.105C133.705 127.444 134.771 128.029 136.071 128.029ZM136.071 123.206C135.174 123.206 134.485 122.374 134.485 121.295C134.485 120.229 135.161 119.41 136.071 119.41C136.968 119.41 137.631 120.216 137.631 121.308C137.631 122.413 136.942 123.206 136.071 123.206ZM146.924 125.156C147.236 125.156 147.535 125.13 147.795 125.104V123.596H146.976C146.599 123.596 146.339 123.44 146.339 122.699V119.501H147.73V117.98H146.339V116.017H144.779V117.98H143.635V119.501H144.779V123.063C144.779 124.558 145.403 125.156 146.924 125.156ZM148.697 124.987H150.27V120.918C150.569 119.943 151.336 119.423 152.168 119.423C152.922 119.423 153.468 119.878 153.468 120.892V124.987H155.028V120.567C155.028 118.838 153.962 117.863 152.48 117.863C151.674 117.863 150.933 118.149 150.27 118.799V115.172H148.697V124.987ZM158.518 125.156C159.337 125.156 160.143 124.896 160.715 124.454C160.949 124.883 161.443 125.156 162.002 125.156C162.223 125.156 162.457 125.117 162.678 125.039V123.7C162.288 123.83 161.989 123.635 161.989 123.245V120.411C161.989 118.786 160.962 117.863 159.285 117.863C157.79 117.863 156.711 118.578 156.321 119.826L157.764 120.346C157.985 119.709 158.505 119.358 159.272 119.358C159.896 119.358 160.325 119.605 160.325 119.982C160.325 120.515 159.467 120.71 157.842 121.152C156.776 121.451 156.048 122.14 156.048 123.154C156.048 124.35 157.062 125.156 158.518 125.156ZM158.661 123.765C158.037 123.765 157.621 123.518 157.621 123.063C157.621 122.231 158.986 122.413 160.442 121.659V123.05C160.026 123.466 159.337 123.765 158.661 123.765ZM163.317 124.987H164.89V120.918C165.189 119.943 165.956 119.41 166.788 119.41C167.542 119.41 168.088 119.878 168.088 120.879V124.987H169.648V120.554C169.648 118.838 168.582 117.863 167.1 117.863C166.294 117.863 165.54 118.136 164.89 118.799V117.98H163.317V124.987ZM177.503 125.156C179.531 125.156 181.091 123.609 181.091 121.516C181.091 119.423 179.531 117.863 177.503 117.863C175.475 117.863 173.915 119.423 173.915 121.516C173.915 123.609 175.475 125.156 177.503 125.156ZM177.503 123.635C176.411 123.635 175.527 122.699 175.527 121.516C175.527 120.333 176.411 119.41 177.503 119.41C178.595 119.41 179.479 120.333 179.479 121.516C179.479 122.699 178.595 123.635 177.503 123.635ZM181.876 124.987H183.449V120.918C183.748 119.943 184.515 119.41 185.347 119.41C186.101 119.41 186.647 119.878 186.647 120.879V124.987H188.207V120.554C188.207 118.838 187.141 117.863 185.659 117.863C184.853 117.863 184.099 118.136 183.449 118.799V117.98H181.876V124.987ZM192.929 125H194.489V118.968L196.894 125H198.376L200.729 118.981V125H202.289V115.224H200.612L197.635 122.829L194.606 115.224H192.929V125ZM207.238 125.247C209.448 125.247 210.891 124.116 210.891 122.4C210.891 120.957 209.864 119.943 207.459 119.189C205.73 118.656 205.145 118.227 205.145 117.603C205.145 116.927 205.847 116.537 206.939 116.537C208.122 116.537 208.785 117.005 209.058 117.98L210.67 117.629C210.241 115.887 209.032 114.99 207.017 114.99C204.872 114.99 203.533 115.991 203.533 117.577C203.533 118.994 204.586 119.982 206.887 120.658C208.577 121.152 209.292 121.659 209.292 122.361C209.292 123.141 208.421 123.713 207.173 123.713C205.886 123.713 205.119 123.102 204.872 121.88L203.338 122.218C203.676 124.181 205.054 125.247 207.238 125.247ZM211.941 125H213.514V118.019L218.103 125H219.611V115.224H218.051V122.179L213.475 115.224H211.941V125ZM222.39 125.156C222.988 125.156 223.469 124.675 223.469 124.077C223.469 123.479 222.988 122.998 222.39 122.998C221.792 122.998 221.311 123.479 221.311 124.077C221.311 124.675 221.792 125.156 222.39 125.156Z" fill="#333333"/>
<defs>
<filter id="filter0_d_1705_53235" x="0" y="0" width="283" height="181.176" filterUnits="userSpaceOnUse" color-interpolation-filters="sRGB">
<feFlood flood-opacity="0" result="BackgroundImageFix"/>
<feColorMatrix in="SourceAlpha" type="matrix" values="0 0 0 0 0 0 0 0 0 0 0 0 0 0 0 0 0 0 127 0" result="hardAlpha"/>
<feOffset dx="4" dy="4"/>
<feComposite in2="hardAlpha" operator="out"/>
<feColorMatrix type="matrix" values="0 0 0 0 0.4 0 0 0 0 0.4 0 0 0 0 0.4 0 0 0 1 0"/>
<feBlend mode="normal" in2="BackgroundImageFix" result="effect1_dropShadow_1705_53235"/>
<feBlend mode="normal" in="SourceGraphic" in2="effect1_dropShadow_1705_53235" result="shape"/>
</filter>
</defs>
</svg>
