<svg width="210" height="121" viewBox="0 0 210 121" fill="none" xmlns="http://www.w3.org/2000/svg">
<path fill-rule="evenodd" clip-rule="evenodd" d="M21.9559 0.0672928C22.756 0.282084 23.2305 1.10481 23.0157 1.90491C19.9814 13.2079 19.1996 24.1558 19.6804 36.0045C19.7022 36.5412 19.7229 37.0968 19.7442 37.6684C19.95 43.1866 20.2113 50.1953 22.0188 56.0279C22.1195 56.3531 22.2247 56.6731 22.3344 56.9877C23.0423 55.9201 23.8032 54.8866 24.6181 53.9101C28.1326 49.6989 32.7867 46.4005 38.6414 46.2523C42.8456 46.1458 45.9109 47.4773 47.6914 49.8629C49.4421 52.2085 49.7128 55.2595 49.0237 58.1265C47.6575 63.8109 42.3039 69.6333 34.7606 69.7493C30.3649 69.817 26.9615 68.4105 24.3895 66.0037C23.5456 65.2139 22.8021 64.327 22.1461 63.3668C21.2304 65.2332 20.4577 67.114 19.8271 68.8904C15.0863 82.2457 14.138 97.465 15.5468 111.554C15.6293 112.378 15.0279 113.113 14.2035 113.195C13.3792 113.278 12.6442 112.676 12.5617 111.852C11.1222 97.4566 12.0719 81.7694 17 67.8868C17.861 65.4613 18.9879 62.8095 20.3952 60.2204C19.9142 59.158 19.5043 58.049 19.1532 56.9159C17.2195 50.6758 16.9469 43.2556 16.7463 37.7958C16.725 37.2158 16.7045 36.658 16.6829 36.1261C16.1932 24.0591 16.9859 12.7952 20.1183 1.12708C20.3331 0.326986 21.1558 -0.147498 21.9559 0.0672928ZM23.7907 60.3132C24.5325 61.6665 25.4079 62.848 26.4393 63.8132C28.4114 65.6586 31.0502 66.8061 34.7144 66.7497C40.6399 66.6585 44.9986 62.0361 46.1068 57.4254C46.655 55.1449 46.3535 53.0859 45.2872 51.6573C44.2508 50.2686 42.2545 49.1618 38.7173 49.2513C34.0447 49.3696 30.1272 51.9911 26.9213 55.8324C25.7687 57.2135 24.7253 58.7332 23.7907 60.3132Z" fill="black"/>
<path fill-rule="evenodd" clip-rule="evenodd" d="M27.6365 103.135C28.2222 103.72 28.2222 104.67 27.6365 105.256C27.1491 105.743 26.1885 107.025 24.8638 108.817C24.7951 108.91 24.7256 109.004 24.6554 109.099C23.4214 110.768 21.9669 112.736 20.4996 114.56C18.964 116.468 17.3433 118.309 15.8883 119.497C15.1744 120.08 14.3769 120.61 13.5568 120.847C12.6564 121.107 11.566 121.038 10.7363 120.156C10.1488 119.532 7.65297 116.439 5.39716 113.535C4.25674 112.067 3.15048 110.612 2.34582 109.498C1.94644 108.946 1.60514 108.454 1.36906 108.079C1.25562 107.899 1.13893 107.702 1.05291 107.52C1.0144 107.438 0.946222 107.286 0.903177 107.102C0.882169 107.012 0.848269 106.838 0.862954 106.621C0.877325 106.409 0.951513 105.995 1.30743 105.639C1.89322 105.053 2.84297 105.053 3.42875 105.639C3.63161 105.842 3.76422 106.088 3.82658 106.348C3.84871 106.386 3.87574 106.43 3.90819 106.481C4.09178 106.773 4.38767 107.202 4.77767 107.742C5.55178 108.813 6.63305 110.236 7.76626 111.694C9.88422 114.421 12.0914 117.155 12.7824 117.946C13.0264 117.86 13.4281 117.633 13.9913 117.173C15.1864 116.197 16.6425 114.568 18.1622 112.679C19.5895 110.905 21.0104 108.983 22.2517 107.303C22.3188 107.213 22.3854 107.122 22.4515 107.033C23.6912 105.356 24.8253 103.824 25.5151 103.135C26.1009 102.549 27.0507 102.549 27.6365 103.135Z" fill="black"/>
<path d="M66.0625 78.1562C65.0156 78.1562 64.4688 77.5156 64.4688 76.2656V58.7656C64.4688 57.3281 65.2344 56.4844 66.5 56.4844C67.6094 56.4844 68.2344 56.9844 68.8906 58.6719L74.5469 72.3594H74.6719L80.3125 58.6562C80.9688 56.9688 81.5625 56.4844 82.7188 56.4844C83.9844 56.4844 84.7188 57.3125 84.7188 58.7656V76.2656C84.7188 77.5 84.1562 78.1562 83.0938 78.1562C82.0625 78.1562 81.5312 77.5156 81.5312 76.2656V63.1562H81.3906L76.6406 74.5469C76.0625 75.9375 75.5 76.375 74.6094 76.375C73.7031 76.375 73.125 75.9219 72.5625 74.5469L67.8125 63.1562H67.6719V76.2656C67.6719 77.5 67.1094 78.1562 66.0625 78.1562ZM97.5088 75.8594C96.6025 77.3906 94.9463 78.2344 92.8994 78.2344C89.6806 78.2344 87.5088 76.2031 87.5088 73.2031C87.5088 70.1562 89.7275 68.2969 93.415 68.2812H97.54V66.8125C97.54 64.9531 96.3994 63.9844 94.29 63.9844C92.9775 63.9844 92.0713 64.4531 91.1181 65.4219C90.6963 65.8281 90.29 65.9844 89.6963 65.9844C88.9306 65.9844 88.4306 65.4688 88.4306 64.7188C88.4306 63.7656 89.0869 62.8281 90.4775 62.0781C91.4775 61.5312 92.79 61.2344 94.5088 61.2344C98.6806 61.2344 101.009 63.2344 101.009 66.8281V76.2812C101.009 77.4688 100.399 78.1562 99.3213 78.1562C98.3681 78.1562 97.7588 77.5781 97.6806 76.5938V75.8594H97.5088ZM90.9931 73.0312C90.9931 74.5625 92.1963 75.5938 93.9775 75.5938C95.9931 75.5938 97.54 74.2188 97.54 72.4375V70.6562H93.8994C92.0556 70.6562 90.9931 71.5156 90.9931 73.0312ZM104.174 57.3281C104.174 56.2344 105.049 55.3906 106.221 55.3906C107.424 55.3906 108.299 56.2031 108.299 57.3281C108.299 58.4688 107.424 59.2969 106.221 59.2969C105.064 59.2969 104.174 58.4531 104.174 57.3281ZM103.299 83.7656C102.455 83.7656 101.814 83.6094 101.424 83.3125C101.064 83.0781 100.893 82.7344 100.893 82.2969C100.893 81.5625 101.393 81.1094 102.221 81.1094C102.408 81.1094 102.752 81.125 102.924 81.125C104.049 81.125 104.502 80.375 104.502 78.3594V63.2656C104.502 62.0469 105.143 61.3438 106.236 61.3438C107.33 61.3438 107.971 62.0469 107.971 63.2656V78.9219C107.971 82.0312 106.283 83.7656 103.299 83.7656ZM118.261 61.1719C122.557 61.1719 125.636 63.9219 125.636 68.6094V70.8281C125.636 75.5938 122.557 78.3125 118.261 78.3125C113.948 78.3125 110.87 75.5938 110.87 70.8281V68.625C110.87 63.9219 113.948 61.1719 118.261 61.1719ZM118.261 63.9844C115.901 63.9844 114.417 65.8438 114.417 68.7812V70.7031C114.417 73.6875 115.901 75.5156 118.261 75.5156C120.636 75.5156 122.073 73.6875 122.073 70.7031V68.7812C122.073 65.8438 120.636 63.9844 118.261 63.9844ZM131.863 76.2344C131.863 77.4531 131.223 78.1562 130.113 78.1562C129.004 78.1562 128.394 77.4531 128.394 76.2344V63.2656C128.394 62.0469 129.035 61.3438 130.129 61.3438C131.16 61.3438 131.754 61.9844 131.801 63.0938V63.5938H131.926C132.676 62.0312 133.926 61.2344 135.457 61.2344C136.004 61.2344 136.457 61.3594 136.769 61.6094C137.144 61.8594 137.348 62.2812 137.348 62.7969C137.348 63.3438 137.16 63.7344 136.785 63.9844C136.473 64.2031 136.019 64.2969 135.426 64.3125C133.066 64.3438 131.863 65.625 131.863 68.2188V76.2344ZM147.787 82.0156C147.787 83.25 147.146 83.9375 146.037 83.9375C144.943 83.9375 144.318 83.25 144.318 82.0156V63.2656C144.318 62.0312 144.912 61.3438 145.99 61.3438C147.037 61.3438 147.646 61.9688 147.693 63.0938V64.1094H147.865C148.537 62.3281 150.396 61.2344 152.74 61.2344C156.599 61.2344 158.974 63.9688 158.974 68.4375V71.0156C158.974 75.5 156.568 78.2344 152.662 78.2344C150.396 78.2344 148.693 77.25 147.959 75.5156H147.787V82.0156ZM147.787 71.125C147.787 73.6719 149.365 75.375 151.677 75.375C154.068 75.375 155.443 73.6094 155.443 70.5469V68.9219C155.443 65.8281 154.068 64.0938 151.631 64.0938C149.24 64.0938 147.787 65.7656 147.787 68.5938V71.125ZM161.624 57.3281C161.624 56.2031 162.514 55.3906 163.671 55.3906C164.874 55.3906 165.749 56.2031 165.749 57.3281C165.749 58.4688 164.874 59.2969 163.671 59.2969C162.514 59.2969 161.624 58.4688 161.624 57.3281ZM165.421 76.2344C165.421 77.5156 164.733 78.1562 163.686 78.1562C162.639 78.1562 161.952 77.5 161.952 76.2344V63.2656C161.952 61.9844 162.655 61.3438 163.686 61.3438C164.733 61.3438 165.421 62 165.421 63.2656V76.2344ZM171.742 74.9844L167.961 64.0781C167.82 63.6875 167.757 63.3594 167.757 63.0625C167.757 62.1094 168.492 61.4062 169.492 61.4062C170.445 61.4062 171.023 61.9375 171.304 63.0781L174.617 74.7969H174.757L178.351 63.0938C178.679 61.9219 179.242 61.4062 180.132 61.4062C181.101 61.4062 181.804 62.0938 181.804 63.0469C181.804 63.3281 181.742 63.6562 181.57 64.0938L177.648 74.9844C176.711 77.5938 176.164 78.1562 174.726 78.1562C173.195 78.1562 172.617 77.5625 171.742 74.9844ZM190.251 61.1719C194.548 61.1719 197.626 63.9219 197.626 68.6094V70.8281C197.626 75.5938 194.548 78.3125 190.251 78.3125C185.938 78.3125 182.86 75.5938 182.86 70.8281V68.625C182.86 63.9219 185.938 61.1719 190.251 61.1719ZM190.251 63.9844C187.891 63.9844 186.407 65.8438 186.407 68.7812V70.7031C186.407 73.6875 187.891 75.5156 190.251 75.5156C192.626 75.5156 194.063 73.6875 194.063 70.7031V68.7812C194.063 65.8438 192.626 63.9844 190.251 63.9844ZM201.509 73.6094V64.3594H200.509C199.556 64.3594 198.978 63.8281 198.978 62.9688C198.978 62.0938 199.541 61.5781 200.509 61.5781H201.572V59.1562C201.572 57.9688 202.181 57.2812 203.259 57.2812C204.337 57.2812 204.962 57.9688 204.962 59.1562V61.5781H206.869C207.837 61.5781 208.384 62.0938 208.384 62.9688C208.384 63.8281 207.822 64.3594 206.869 64.3594H204.994V73.3594C204.994 74.9844 205.4 75.4844 206.775 75.4844C207.212 75.4844 207.509 75.4375 207.853 75.4375C208.509 75.4375 208.978 75.875 208.978 76.5625C208.978 77.0938 208.728 77.5469 208.212 77.8438C207.697 78.1406 206.947 78.2969 205.931 78.2969C202.806 78.2969 201.509 77 201.509 73.6094Z" fill="black"/>
</svg>
